<svg width="24" height="24" viewBox="0 0 24 24" fill="none" xmlns="http://www.w3.org/2000/svg">
<g clip-path="url(#clip0_1014_15529)">
<path d="M0.75 2.21704L2.25 4.10904V8.57604C2.21 10.264 4.167 11.776 5.999 13.328" stroke="#D4D9E3" stroke-width="1.5" stroke-linecap="round" stroke-linejoin="round"/>
<path d="M5.23099 7.358L6.99999 9.17C7.11162 9.28458 7.24471 9.37605 7.39169 9.43919C7.53866 9.50233 7.69663 9.5359 7.85658 9.53799C8.01653 9.54008 8.17532 9.51064 8.3239 9.45137C8.47247 9.39209 8.60791 9.30412 8.72249 9.1925C8.83707 9.08088 8.92854 8.94778 8.99168 8.8008C9.05482 8.65383 9.08839 8.49586 9.09048 8.33591C9.09257 8.17596 9.06314 8.01717 9.00386 7.86859C8.94458 7.72002 8.85661 7.58458 8.74499 7.47L5.99399 4.663V3.2C5.84495 2.32335 5.51161 1.4883 5.01599 0.75" stroke="#D4D9E3" stroke-width="1.5" stroke-linecap="round" stroke-linejoin="round"/>
<path d="M6 8.13794V20.2499C6 20.6478 6.15804 21.0293 6.43934 21.3106C6.72064 21.5919 7.10218 21.7499 7.5 21.7499H14.25" stroke="#D4D9E3" stroke-width="1.5" stroke-linecap="round" stroke-linejoin="round"/>
<path d="M23.25 21.782L21.75 19.89V15.424C21.785 13.965 20.329 12.638 18.75 11.304" stroke="#D4D9E3" stroke-width="1.5" stroke-linecap="round" stroke-linejoin="round"/>
<path d="M9.75 3.75H17.25C17.6478 3.75 18.0294 3.90804 18.3107 4.18934C18.592 4.47064 18.75 4.85218 18.75 5.25V16.62L17 14.83C16.7746 14.5986 16.4664 14.4662 16.1434 14.462C15.8204 14.4578 15.5089 14.5821 15.2775 14.8075C15.0461 15.0329 14.9137 15.3411 14.9095 15.6641C14.9053 15.9871 15.0296 16.2986 15.255 16.53L18.01 19.338V20.8C18.1598 21.6752 18.4931 22.5088 18.988 23.246" stroke="#D4D9E3" stroke-width="1.5" stroke-linecap="round" stroke-linejoin="round"/>
</g>
<defs>
<clipPath id="clip0_1014_15529">
<rect width="24" height="24" fill="white"/>
</clipPath>
</defs>
</svg>
