<svg width="24" height="24" viewBox="0 0 24 24" fill="none" xmlns="http://www.w3.org/2000/svg">
<g clip-path="url(#clip0_1014_15544)">
<g clip-path="url(#clip1_1014_15544)">
<path d="M24 9.50004C23.9996 9.34732 23.9643 9.19672 23.8967 9.05978C23.8291 8.92284 23.731 8.8032 23.61 8.71004L12.61 0.21004C12.4351 0.0754318 12.2207 0.00244141 12 0.00244141C11.7793 0.00244141 11.5649 0.0754318 11.39 0.21004L0.39 8.71004C0.268985 8.8032 0.170915 8.92284 0.103311 9.05978C0.0357078 9.19672 0.00036708 9.34732 0 9.50004L0 23C0 23.2653 0.105357 23.5196 0.292893 23.7071C0.48043 23.8947 0.734784 24 1 24H9C9.26522 24 9.51957 23.8947 9.70711 23.7071C9.89464 23.5196 10 23.2653 10 23V18C10 17.4696 10.2107 16.9609 10.5858 16.5858C10.9609 16.2108 11.4696 16 12 16C12.5304 16 13.0391 16.2108 13.4142 16.5858C13.7893 16.9609 14 17.4696 14 18V23C14 23.2653 14.1054 23.5196 14.2929 23.7071C14.4804 23.8947 14.7348 24 15 24H23C23.2652 24 23.5196 23.8947 23.7071 23.7071C23.8946 23.5196 24 23.2653 24 23V9.50004ZM22 21.5C22 21.6326 21.9473 21.7598 21.8536 21.8536C21.7598 21.9474 21.6326 22 21.5 22H16.5C16.3674 22 16.2402 21.9474 16.1464 21.8536C16.0527 21.7598 16 21.6326 16 21.5V18C16 16.9392 15.5786 15.9218 14.8284 15.1716C14.0783 14.4215 13.0609 14 12 14C10.9391 14 9.92172 14.4215 9.17157 15.1716C8.42143 15.9218 8 16.9392 8 18V21.5C8 21.6326 7.94732 21.7598 7.85355 21.8536C7.75979 21.9474 7.63261 22 7.5 22H2.5C2.36739 22 2.24021 21.9474 2.14645 21.8536C2.05268 21.7598 2 21.6326 2 21.5V10.24C1.99957 10.1634 2.01643 10.0876 2.04932 10.0183C2.08222 9.94909 2.1303 9.88814 2.19 9.84004L11.69 2.50004C11.779 2.43192 11.8879 2.39501 12 2.39501C12.1121 2.39501 12.221 2.43192 12.31 2.50004L21.81 9.84004C21.8697 9.88814 21.9178 9.94909 21.9507 10.0183C21.9836 10.0876 22.0004 10.1634 22 10.24V21.5Z" fill="#D4D9E3"/>
</g>
</g>
<defs>
<clipPath id="clip0_1014_15544">
<rect width="24" height="24" fill="white"/>
</clipPath>
<clipPath id="clip1_1014_15544">
<rect width="24" height="24" fill="white"/>
</clipPath>
</defs>
</svg>
