<svg width="24" height="24" viewBox="0 0 24 24" fill="none" xmlns="http://www.w3.org/2000/svg">
<g clip-path="url(#clip0_1014_15539)">
<path d="M5.5 6.5C6.82608 6.5 8.09747 7.02716 9.03516 7.96484C9.97284 8.90253 10.5 10.1739 10.5 11.5C10.5 12.2933 10.2438 13.2242 9.82617 14.2031C9.41127 15.1755 8.85196 16.1608 8.28027 17.0537C7.42277 18.393 6.55183 19.5031 6.12988 20.0225L5.87988 20.3252C5.83297 20.38 5.77451 20.4239 5.70898 20.4541C5.64343 20.4843 5.57216 20.5 5.5 20.5L5.39258 20.4883C5.35769 20.4806 5.32366 20.4691 5.29102 20.4541C5.22549 20.4239 5.16703 20.38 5.12012 20.3252H5.11914C4.99062 20.1707 3.84372 18.8093 2.71973 17.0537C2.14804 16.1608 1.58873 15.1755 1.17383 14.2031C0.756168 13.2242 0.5 12.2933 0.5 11.5C0.5 10.1739 1.02716 8.90253 1.96484 7.96484C2.90253 7.02716 4.17392 6.5 5.5 6.5ZM6.08496 8.55762C5.50311 8.44194 4.89965 8.50149 4.35156 8.72852C3.80367 8.95555 3.33542 9.33993 3.00586 9.83301C2.67622 10.3264 2.5 10.9067 2.5 11.5C2.5 12.2956 2.8163 13.0585 3.37891 13.6211C3.94152 14.1837 4.70435 14.5 5.5 14.5C6.09334 14.5 6.67364 14.3238 7.16699 13.9941C7.66007 13.6646 8.04445 13.1963 8.27148 12.6484C8.49851 12.1004 8.55806 11.4969 8.44238 10.915C8.32663 10.3331 8.04065 9.79846 7.62109 9.37891C7.20154 8.95935 6.6669 8.67337 6.08496 8.55762Z" stroke="#D4D9E3"/>
<path d="M19.5 13H15C14.4696 13 13.9609 13.2107 13.5858 13.5858C13.2107 13.9609 13 14.4696 13 15V21.75C13 21.8163 12.9737 21.8799 12.9268 21.9268C12.8799 21.9737 12.8163 22 12.75 22H5.5C5.23478 22 4.98043 22.1054 4.79289 22.2929C4.60536 22.4804 4.5 22.7348 4.5 23C4.5 23.2652 4.60536 23.5196 4.79289 23.7071C4.98043 23.8946 5.23478 24 5.5 24H13C13.5304 24 14.0391 23.7893 14.4142 23.4142C14.7893 23.0391 15 22.5304 15 22V15.25C15 15.1837 15.0263 15.1201 15.0732 15.0732C15.1201 15.0263 15.1837 15 15.25 15H19.5C19.7652 15 20.0196 14.8946 20.2071 14.7071C20.3946 14.5196 20.5 14.2652 20.5 14C20.5 13.7348 20.3946 13.4804 20.2071 13.2929C20.0196 13.1054 19.7652 13 19.5 13Z" fill="#D4D9E3"/>
<path d="M19.5 0.5C20.5609 0.5 21.578 0.921729 22.3281 1.67188C23.0783 2.42202 23.5 3.43913 23.5 4.5C23.5 5.19332 23.2794 5.96427 22.918 6.75391C22.5584 7.53942 22.0731 8.31481 21.5752 9.00879C20.6324 10.3229 19.6851 11.2946 19.5 11.4922C19.3149 11.2946 18.3676 10.3229 17.4248 9.00879C16.9269 8.31481 16.4416 7.53942 16.082 6.75391C15.7206 5.96427 15.5 5.19332 15.5 4.5C15.5 3.43913 15.9217 2.42202 16.6719 1.67188C17.422 0.921729 18.4391 0.5 19.5 0.5ZM19.8906 2.53809C19.5027 2.46092 19.0998 2.50097 18.7344 2.65234C18.3691 2.80372 18.0566 3.05988 17.8369 3.38867C17.6172 3.71757 17.5 4.10444 17.5 4.5C17.5 5.03043 17.7109 5.53899 18.0859 5.91406C18.4142 6.24235 18.8447 6.44485 19.3027 6.49023L19.5 6.5C19.8956 6.5 20.2824 6.38285 20.6113 6.16309C20.9401 5.94338 21.1963 5.63094 21.3477 5.26562C21.499 4.90017 21.5391 4.49734 21.4619 4.10938C21.3847 3.72155 21.1937 3.36555 20.9141 3.08594C20.6344 2.80632 20.2784 2.6153 19.8906 2.53809Z" stroke="#D4D9E3"/>
</g>
<defs>
<clipPath id="clip0_1014_15539">
<rect width="24" height="24" fill="white"/>
</clipPath>
</defs>
</svg>
