<svg width="24" height="24" viewBox="0 0 24 24" fill="none" xmlns="http://www.w3.org/2000/svg">
<g clip-path="url(#clip0_1014_25419)">
<path d="M5.5 21C5.64444 21 5.78717 20.9687 5.91837 20.9083C6.04956 20.8479 6.16611 20.7598 6.26 20.65C6.45 20.42 11 15.06 11 11.5C11 10.0413 10.4205 8.64236 9.38909 7.61091C8.35764 6.57946 6.95869 6 5.5 6C4.04131 6 2.64236 6.57946 1.61091 7.61091C0.579463 8.64236 0 10.0413 0 11.5C0 15.06 4.55 20.42 4.74 20.65C4.83389 20.7598 4.95044 20.8479 5.08163 20.9083C5.21283 20.9687 5.35556 21 5.5 21ZM3 11.5C3 11.0055 3.14662 10.5222 3.42133 10.1111C3.69603 9.69995 4.08648 9.37952 4.54329 9.1903C5.00011 9.00108 5.50277 8.95157 5.98773 9.04804C6.47268 9.1445 6.91814 9.3826 7.26777 9.73223C7.6174 10.0819 7.8555 10.5273 7.95196 11.0123C8.04843 11.4972 7.99892 11.9999 7.8097 12.4567C7.62048 12.9135 7.30005 13.304 6.88893 13.5787C6.4778 13.8534 5.99445 14 5.5 14C4.83696 14 4.20107 13.7366 3.73223 13.2678C3.26339 12.7989 3 12.163 3 11.5Z" fill="white"/>
<path d="M19.5 13H15C14.4696 13 13.9609 13.2107 13.5858 13.5858C13.2107 13.9609 13 14.4696 13 15V21.75C13 21.8163 12.9737 21.8799 12.9268 21.9268C12.8799 21.9737 12.8163 22 12.75 22H5.5C5.23478 22 4.98043 22.1054 4.79289 22.2929C4.60536 22.4804 4.5 22.7348 4.5 23C4.5 23.2652 4.60536 23.5196 4.79289 23.7071C4.98043 23.8946 5.23478 24 5.5 24H13C13.5304 24 14.0391 23.7893 14.4142 23.4142C14.7893 23.0391 15 22.5304 15 22V15.25C15 15.1837 15.0263 15.1201 15.0732 15.0732C15.1201 15.0263 15.1837 15 15.25 15H19.5C19.7652 15 20.0196 14.8946 20.2071 14.7071C20.3946 14.5196 20.5 14.2652 20.5 14C20.5 13.7348 20.3946 13.4804 20.2071 13.2929C20.0196 13.1054 19.7652 13 19.5 13Z" fill="white"/>
<path d="M19.5 12C19.5656 12.0008 19.6306 11.9879 19.6909 11.962C19.7512 11.9362 19.8054 11.898 19.85 11.85C20 11.68 24 7.67 24 4.5C24 3.30653 23.5259 2.16193 22.682 1.31802C21.8381 0.474106 20.6935 0 19.5 0C18.3065 0 17.1619 0.474106 16.318 1.31802C15.4741 2.16193 15 3.30653 15 4.5C15 7.67 19 11.68 19.15 11.85C19.1946 11.898 19.2488 11.9362 19.3091 11.962C19.3694 11.9879 19.4344 12.0008 19.5 12ZM18 4.5C18 4.20333 18.088 3.91332 18.2528 3.66664C18.4176 3.41997 18.6519 3.22771 18.926 3.11418C19.2001 3.00065 19.5017 2.97094 19.7926 3.02882C20.0836 3.0867 20.3509 3.22956 20.5607 3.43934C20.7704 3.64912 20.9133 3.91639 20.9712 4.20736C21.0291 4.49834 20.9993 4.79994 20.8858 5.07403C20.7723 5.34811 20.58 5.58238 20.3334 5.7472C20.0867 5.91203 19.7967 6 19.5 6C19.1022 6 18.7206 5.84196 18.4393 5.56066C18.158 5.27936 18 4.89782 18 4.5Z" fill="white"/>
</g>
<defs>
<clipPath id="clip0_1014_25419">
<rect width="24" height="24" fill="white"/>
</clipPath>
</defs>
</svg>
