<svg width="16" height="16" viewBox="0 0 16 16" fill="none" xmlns="http://www.w3.org/2000/svg">
<g clip-path="url(#clip0_1014_15938)">
<path d="M8.66667 4C8.48986 4 8.32029 4.07024 8.19526 4.19526C8.07024 4.32029 8 4.48986 8 4.66667V8.33333C8 8.51014 8.07024 8.67971 8.19526 8.80474C8.32029 8.92976 8.48986 9 8.66667 9H12C12.1768 9 12.3464 8.92976 12.4714 8.80474C12.5964 8.67971 12.6667 8.51014 12.6667 8.33333C12.6667 8.15652 12.5964 7.98695 12.4714 7.86193C12.3464 7.7369 12.1768 7.66667 12 7.66667H9.47333C9.42913 7.66667 9.38674 7.64911 9.35548 7.61785C9.32423 7.5866 9.30667 7.5442 9.30667 7.5V4.66667C9.3068 4.49438 9.24024 4.32873 9.12093 4.20445C9.00161 4.08016 8.83881 4.00689 8.66667 4Z" fill="white"/>
<path d="M8.37998 0.83988C6.94569 0.895768 5.56076 1.37869 4.4027 2.22675C3.24464 3.0748 2.3662 4.24936 1.87998 5.59988C1.86667 5.63554 1.84155 5.66557 1.8088 5.68498C1.77606 5.70438 1.73765 5.712 1.69998 5.70655L0.573313 5.53988C0.511297 5.53156 0.448186 5.54019 0.390674 5.56483C0.333162 5.58948 0.283393 5.62924 0.246646 5.67988C0.214268 5.73312 0.197144 5.79423 0.197144 5.85655C0.197144 5.91886 0.214268 5.97997 0.246646 6.03321L1.99998 9.16655C2.02773 9.21374 2.06646 9.25354 2.11289 9.28256C2.15931 9.31158 2.21206 9.32896 2.26665 9.33321C2.31729 9.33876 2.36853 9.33329 2.41686 9.31718C2.46519 9.30107 2.50946 9.2747 2.54665 9.23988L5.05998 6.73988C5.104 6.69627 5.13499 6.64125 5.14948 6.58099C5.16396 6.52074 5.16136 6.45765 5.14198 6.39879C5.12259 6.33993 5.08718 6.28765 5.03972 6.2478C4.99226 6.20795 4.93464 6.18212 4.87331 6.17321L3.72665 5.99988C3.70149 5.99519 3.67768 5.98499 3.65693 5.97C3.63618 5.95502 3.61901 5.93562 3.60665 5.91321C3.59495 5.89054 3.58885 5.86539 3.58885 5.83988C3.58885 5.81437 3.59495 5.78922 3.60665 5.76655C4.00362 4.86734 4.63405 4.09078 5.43249 3.51748C6.23093 2.94419 7.16826 2.59505 8.14719 2.50633C9.12611 2.41761 10.1109 2.59252 10.9994 3.01293C11.8879 3.43333 12.6477 4.08389 13.1999 4.89707C13.7521 5.71026 14.0765 6.65642 14.1396 7.63733C14.2026 8.61825 14.0019 9.59816 13.5584 10.4753C13.1149 11.3525 12.4446 12.095 11.6173 12.6257C10.7899 13.1563 9.83554 13.4559 8.85331 13.4932C8.6323 13.5012 8.4235 13.5966 8.27284 13.7585C8.12219 13.9204 8.04202 14.1355 8.04998 14.3565C8.05794 14.5776 8.15336 14.7864 8.31527 14.937C8.47718 15.0877 8.6923 15.1678 8.91331 15.1599C10.8131 15.09 12.6074 14.2684 13.9014 12.8756C15.1954 11.4828 15.8832 9.63305 15.8133 7.73321C15.7435 5.83338 14.9218 4.0391 13.529 2.7451C12.1362 1.4511 10.2865 0.763373 8.38665 0.833213L8.37998 0.83988Z" fill="white"/>
</g>
<defs>
<clipPath id="clip0_1014_15938">
<rect width="16" height="16" fill="white"/>
</clipPath>
</defs>
</svg>
