<svg width="24" height="24" viewBox="0 0 24 24" fill="none" xmlns="http://www.w3.org/2000/svg">
<g clip-path="url(#clip0_1014_15527)">
<path d="M23.41 20.59L18.77 15.9999C20.0385 14.0993 20.6355 11.8292 20.4662 9.55039C20.2969 7.27157 19.3709 5.11468 17.8354 3.42236C16.2999 1.73004 14.2429 0.599348 11.9913 0.209905C9.73959 -0.179538 7.42235 0.194602 5.40765 1.27289C3.39296 2.35118 1.79635 4.07177 0.871476 6.16134C-0.053403 8.25091 -0.253513 10.5896 0.302934 12.8059C0.859382 15.0223 2.14047 16.9891 3.9427 18.394C5.74492 19.7988 7.96492 20.5612 10.25 20.5599C12.278 20.562 14.26 19.9559 15.94 18.82L20.59 23.4699C20.9647 23.8425 21.4717 24.0515 22 24.0515C22.5284 24.0515 23.0353 23.8425 23.41 23.4699C23.6036 23.2834 23.7576 23.0597 23.8627 22.8123C23.9679 22.5649 24.0221 22.2988 24.0221 22.03C24.0221 21.7611 23.9679 21.495 23.8627 21.2476C23.7576 21.0002 23.6036 20.7765 23.41 20.59ZM10.25 2.99995C11.6835 2.99995 13.0848 3.4249 14.2769 4.2211C15.4689 5.0173 16.3982 6.14901 16.9472 7.47319C17.4962 8.79737 17.6404 10.2546 17.3614 11.6607C17.0825 13.0668 16.393 14.3586 15.3801 15.3729C14.3671 16.3873 13.0763 17.0786 11.6705 17.3594C10.2648 17.6403 8.80743 17.4981 7.48249 16.9509C6.15755 16.4037 5.02457 15.476 4.22673 14.2851C3.42889 13.0942 3.002 11.6934 3.00002 10.2599C3.00002 8.33621 3.76354 6.49111 5.12289 5.12989C6.48224 3.76866 8.32628 3.0026 10.25 2.99995Z" fill="#D4D9E3"/>
</g>
<defs>
<clipPath id="clip0_1014_15527">
<rect width="24" height="24" fill="white"/>
</clipPath>
</defs>
</svg>
