<svg width="443" height="87" viewBox="0 0 443 87" fill="none" xmlns="http://www.w3.org/2000/svg">
<path d="M86.0962 79.5C82.8279 79.5 80.1784 76.8505 80.1784 73.5822V37.2143V26.6429V22.309C80.1784 21.6472 80.0589 20.991 79.8256 20.3717C78.888 17.8826 76.3024 16.4222 73.6866 16.9043L64.9403 18.5162C58.2834 19.743 55.6372 10.2548 61.9682 7.85939C62.5963 7.62177 63.2622 7.5 63.9337 7.5H74.7042C77.3431 7.5 79.9578 8.00354 82.408 8.98362L83.7621 9.52528C85.3041 10.1421 86.7151 11.0459 87.9202 12.1888C90.5338 14.6676 92.014 18.1115 92.014 21.7136V26.6429V37.2143V73.5822C92.014 76.8505 89.3645 79.5 86.0962 79.5Z" fill="#FFFEFC"/>
<rect y="67.6644" width="163.726" height="11.8356" rx="5.91781" fill="#FFFEFC"/>
<rect x="14.7947" y="53.8561" width="134.137" height="11.8356" rx="5.91781" fill="#FFFEFC"/>
<rect x="29.5891" y="40.0479" width="104.548" height="11.8356" rx="5.91781" fill="#FFFEFC"/>
<rect x="44.3838" y="26.2397" width="74.9589" height="11.8356" rx="5.91781" fill="#FFFEFC"/>
<path d="M209.892 14.96C229.146 14.96 238.772 24.1333 238.772 42.48C238.772 60.8267 229.146 70 209.892 70H186.052V14.96H209.892ZM203.732 56.8H209.572C216.986 56.8 220.692 52.8267 220.692 44.88V40.08C220.692 32.1333 216.986 28.16 209.572 28.16H203.732V56.8ZM249.118 70V14.96H266.798V70H249.118ZM279.412 14.96H327.012V28.16H297.092V35.76H322.692V48.4H297.092V56.8H327.572V70H279.412V14.96ZM360.346 56.8H386.506V70H333.146V64.32L358.666 28.16H335.066V14.96H385.866V20.64L360.346 56.8ZM394.88 14.96H412.56V55.92H440.8V70H394.88V14.96Z" fill="white"/>
</svg>
