<svg width="512" height="512" viewBox="0 0 512 512" fill="none" xmlns="http://www.w3.org/2000/svg">
<path d="M266.098 342.359C258.229 342.359 251.849 335.98 251.849 328.111V240.545V215.092V204.657C251.849 203.063 251.562 201.483 251 199.992C248.742 193.999 242.517 190.483 236.219 191.643L215.16 195.524C199.131 198.478 192.76 175.633 208.003 169.865C209.516 169.293 211.119 169 212.736 169H238.669C245.023 169 251.318 170.212 257.218 172.572L260.478 173.876C264.191 175.362 267.588 177.538 270.49 180.29C276.783 186.258 280.347 194.55 280.347 203.223V215.092V240.545V328.111C280.347 335.98 273.967 342.359 266.098 342.359Z" fill="white"/>
<rect x="58.7988" y="313.862" width="394.215" height="28.4974" rx="14.2487" fill="white"/>
<rect x="94.4204" y="280.615" width="322.971" height="28.4974" rx="14.2487" fill="white"/>
<rect x="130.042" y="247.368" width="251.727" height="28.4974" rx="14.2487" fill="white"/>
<rect x="165.665" y="214.121" width="180.484" height="28.4974" rx="14.2487" fill="white"/>
</svg>
