<svg width="1698" height="240" viewBox="0 0 1698 240" fill="none" xmlns="http://www.w3.org/2000/svg">
<g clip-path="url(#clip0_3255_48432)">
<path d="M1305.77 58.0178H1333.52V68.8275C1333.52 75.3776 1328.2 80.7047 1321.64 80.7047H1305.77V147.418C1305.77 159.16 1310.56 165.027 1323.65 165.027C1326.86 165.027 1331.4 164.488 1333.52 163.959V185.309C1331.39 186.107 1324.98 187.703 1316.44 187.703C1294.55 187.703 1280.68 174.354 1280.68 151.149V80.7047H1256.14V58.0282H1263.08C1276.94 58.0282 1282.82 49.4882 1282.82 38.2847V20.2098H1305.77V58.0282V58.0178Z" fill="white"/>
<path d="M765.28 58.0178H793.035V68.8275C793.035 75.3776 787.719 80.7047 781.158 80.7047H765.28V147.418C765.28 159.16 770.079 165.027 783.169 165.027C786.371 165.027 790.911 164.488 793.035 163.959V185.309C790.9 186.107 784.495 187.703 775.955 187.703C754.067 187.703 740.2 174.354 740.2 151.149V80.7047H715.657V58.0282H722.591C736.458 58.0282 742.334 49.4882 742.334 38.2847V20.2098H765.28V58.0282V58.0178Z" fill="white"/>
<path d="M1383.72 186.366H1358.64V0H1383.72V72.9628C1393.06 59.3548 1408.01 54.2868 1422.68 54.2868C1453.37 54.2868 1468.57 76.4348 1468.57 104.977V186.356H1443.49V109.237C1443.49 91.3693 1436.02 76.953 1413.6 76.953C1394.39 76.953 1384.25 91.8875 1383.71 110.843V186.356L1383.72 186.366Z" fill="white"/>
<path d="M1503.45 240L1535.46 172.219L1480.23 58.0178H1509.06L1549.08 146.61L1587.51 58.0178H1614.47L1530.95 240H1503.45Z" fill="white"/>
<path d="M1087.63 54.0173C1049.98 54.0173 1019.46 84.5394 1019.46 122.192C1019.46 159.845 1049.98 190.367 1087.63 190.367C1125.29 190.367 1155.81 159.845 1155.81 122.192C1155.81 84.5394 1125.29 54.0173 1087.63 54.0173ZM1087.63 167.96C1062.37 167.96 1041.87 147.48 1041.87 122.192C1041.87 96.9037 1062.34 76.4244 1087.63 76.4244C1112.92 76.4244 1133.4 96.9037 1133.4 122.192C1133.4 147.48 1112.92 167.96 1087.63 167.96Z" fill="white"/>
<path d="M1236.93 58.0075C1236.93 58.0075 1209.58 56.8882 1198.5 73.9577V58.0178H1173.96V186.366H1199.04V122.068C1199.04 93.7841 1213.18 80.6944 1234.25 80.6944C1237.73 80.6944 1241.37 80.7047 1245.19 80.7047V58.0075H1236.91H1236.92H1236.93Z" fill="white"/>
<path d="M687.727 133.406H710.6C711.201 129.758 711.543 126.016 711.543 122.192C711.543 118.368 711.211 114.626 710.6 110.978C705.252 78.6527 677.197 54.0173 643.348 54.0173C609.499 54.0173 581.454 78.6734 576.095 110.978C575.494 114.626 575.152 118.368 575.152 122.192C575.152 126.016 575.484 129.758 576.095 133.406C581.443 165.731 609.499 190.367 643.348 190.367C670.066 190.367 693.188 174.976 704.371 152.59L682.969 145.076C675.062 158.746 660.272 167.949 643.348 167.949C621.936 167.949 603.975 153.253 598.969 133.396H687.727V133.406ZM643.348 76.4347C664.76 76.4347 682.721 91.1309 687.727 110.988H598.969C603.964 91.1309 621.936 76.4347 643.348 76.4347Z" fill="white"/>
<path d="M539.313 133.406H562.187C562.788 129.758 563.13 126.016 563.13 122.192C563.13 118.368 562.798 114.626 562.187 110.978C556.839 78.6527 528.784 54.0173 494.935 54.0173C461.086 54.0173 433.041 78.6734 427.682 110.978C427.081 114.626 426.739 118.368 426.739 122.192C426.739 126.016 427.071 129.758 427.682 133.406C433.03 165.731 461.086 190.367 494.935 190.367C521.653 190.367 544.775 174.976 555.958 152.59L534.556 145.076C526.649 158.746 511.859 167.949 494.935 167.949C473.523 167.949 455.562 153.253 450.556 133.396H539.313V133.406ZM494.935 76.4347C516.347 76.4347 534.308 91.1309 539.313 110.988H450.556C455.551 91.1309 473.523 76.4347 494.935 76.4347Z" fill="white"/>
<path d="M410.893 165.027C397.813 165.027 393.004 159.161 393.004 147.418V0.020752H367.923V151.139C367.923 174.354 381.79 187.693 403.679 187.693C412.219 187.693 418.614 186.086 420.759 185.299V163.949C418.624 164.488 414.085 165.016 410.893 165.016V165.027Z" fill="white"/>
<path d="M248.343 186.366V0.020752H353.03V11.8668C353.03 18.4169 347.714 23.744 341.153 23.744H273.89V80.4975H341.153V92.6131C341.153 99.1631 335.836 104.49 329.276 104.49H273.89V186.366H248.333H248.343Z" fill="white"/>
<path d="M928.887 58.2251L962.249 154.818L990.532 58.2251H1016.95L975.328 186.573H949.439L915.29 88.913L881.928 186.573H855.51L813.349 58.2251H840.824L869.646 154.818L903.008 58.2251H928.898H928.887Z" fill="white"/>
<path d="M70.9315 0C31.7554 0 0 31.7554 0 70.9315V94.4993C7.74194 82.5806 18.4791 71.2217 30.9885 64.5369C38.7822 60.3705 47.1667 57.4582 55.8932 55.8932C60.1425 55.1367 64.7027 54.7843 70.7035 54.7843L149.615 54.9605C168.374 55.0123 183.609 39.8083 183.609 21.039V0H70.9315Z" fill="#EF444A"/>
<path d="M0 139.541C0 107.444 21.4017 79.119 52.0482 70.662C56.8778 69.3354 62.0702 68.6514 67.4595 68.6514H130.359V94.6547C130.359 110.387 117.601 123.145 101.868 123.145H70.9315C21.6608 123.156 8.14613 139.179 0.010364 161.803V139.541H0Z" fill="#EF444A"/>
<path d="M46.4101 190.377C32.2528 190.377 20.7384 178.863 20.7384 164.705C20.7384 150.548 32.2528 139.034 46.4101 139.034C60.5674 139.034 72.0818 150.548 72.0818 164.705C72.0818 178.863 60.5674 190.377 46.4101 190.377Z" fill="white"/>
<path d="M1649.44 33.2271V58.0282H1643.09V33.2271H1633.75V27.5476H1658.8V33.2271H1649.45H1649.44ZM1691.94 58.0179V38.5646L1683.5 58.0179H1678.58L1670.39 38.8133V58.0179H1664.05V27.5372H1672.32L1681.25 48.7421L1690.19 27.5372H1697.95V58.0179H1691.94Z" fill="white"/>
</g>
<defs>
<clipPath id="clip0_3255_48432">
<rect width="1697.95" height="240" fill="white"/>
</clipPath>
</defs>
</svg>
