<svg width="125" height="130" viewBox="0 0 125 130" fill="none" xmlns="http://www.w3.org/2000/svg">
<path d="M48.1067 0C21.5364 0 0 21.5364 0 48.1067V64.0939C5.25122 56.0077 12.5321 48.308 21.021 43.7736C26.3044 40.9466 31.9906 38.9734 37.9103 37.9103C40.7936 37.3948 43.8864 37.1613 47.9536 37.1613L101.473 37.2821C114.198 37.3143 124.531 27.0051 124.531 14.2717V0H48.1067Z" fill="#F34249"/>
<path d="M0 94.643C0 72.8729 14.5133 53.6641 35.3008 47.9296C38.5788 47.0276 42.0984 46.5685 45.7549 46.5685H88.417V64.2068C88.417 74.8784 79.767 83.5284 69.0954 83.5284H48.1147C14.6905 83.5284 5.52506 94.3933 0.00805402 109.744V94.643H0Z" fill="#F34249"/>
<path d="M31.4748 129.122C21.8744 129.122 14.062 121.31 14.062 111.709C14.062 102.109 21.8744 94.2966 31.4748 94.2966C41.0752 94.2966 48.8876 102.109 48.8876 111.709C48.8876 121.31 41.0752 129.122 31.4748 129.122Z" fill="white"/>
</svg>
