<svg width="225" height="225" viewBox="0 0 225 225" fill="none" xmlns="http://www.w3.org/2000/svg">
<g clip-path="url(#clip0_58_149)">
<path d="M21.5831 0H203.45C203.888 0.298176 208.177 1.1522 209.279 1.62099C218.037 5.34434 223.35 12.2911 225 21.5841V204.122C222.921 212.22 219.757 217.294 212.535 221.821C210.263 223.244 205.406 224.574 204.754 225H19.8557C18.5973 224.11 14.0125 222.972 11.3188 221.065C4.83387 216.474 1.62515 211.271 0 203.6V21.5691C2.10516 12.1669 6.6134 5.44863 15.7601 1.59343C17.3837 0.909112 20.3913 0.60975 21.5831 0Z" fill="white"/>
<path d="M150.001 82.2572C151.298 82.0827 153.159 82.1548 154.502 82.1291C173.227 81.772 188.537 92.7105 192.321 111.415C194.62 122.781 193.812 134.694 193.81 146.304L193.817 193.818C182.818 193.657 171.421 193.809 160.389 193.807L160.391 154.022C160.393 151.234 160.419 148.436 160.402 145.647C160.343 135.903 161.495 123.504 153.459 116.352C149.889 113.175 144.754 112.323 140.145 112.654C134.276 113.076 130.298 115.058 126.507 119.488C122.656 124.59 121.644 131.001 121.72 137.223C121.779 142.06 121.741 146.928 121.741 151.768L121.747 193.817C111.115 193.704 100.288 193.806 89.6405 193.802L89.6328 85.2551L121.755 85.251C121.756 89.9505 121.856 95.0908 121.644 99.754C122.03 99.2007 122.421 98.6519 122.818 98.1072C129.819 88.5368 138.518 84.0247 150.001 82.2572Z" fill="#1B1B1B"/>
<path d="M34.4806 85.2577L68.1416 85.25C67.9854 97.9041 68.1267 110.857 68.1262 123.531L68.1352 193.83C57.6466 193.475 45.1 193.803 34.4795 193.8C34.639 181.681 34.4894 169.199 34.4903 157.056L34.4806 85.2577Z" fill="#1B1B1B"/>
<path d="M48.6268 31.4588C59.5909 30.1031 69.5641 37.9293 70.8543 48.9014C72.1444 59.8734 64.2588 69.7995 53.2793 71.0243C42.3921 72.2387 32.5674 64.4336 31.2882 53.5538C30.0087 42.6741 37.7549 32.8031 48.6268 31.4588Z" fill="#1B1B1B"/>
</g>
<defs>
<clipPath id="clip0_58_149">
<rect width="225" height="225" fill="white"/>
</clipPath>
</defs>
</svg>
