<svg width="139" height="56" viewBox="0 0 139 56" fill="none" xmlns="http://www.w3.org/2000/svg">
<path d="M57.3994 25.0096H61.129V36.4672H63.602V25.0096H67.3316V22.7427H57.3994V25.0096ZM73.2474 26.4925C72.7255 26.6851 72.2372 26.8912 71.7847 27.1107C71.3322 27.3302 70.8775 27.5497 70.425 27.7693V26.6986H68.0551V36.4672H70.425V30.7597C70.425 30.4013 70.6109 30.128 70.9805 29.9354C71.3389 29.7427 71.7265 29.5501 72.1453 29.3574C72.5642 29.1648 72.9809 28.9856 73.393 28.8221L73.2497 26.4925H73.2474ZM77.6983 36.4672H81.6138C81.9162 36.4672 82.2007 36.409 82.4695 36.2925C82.7383 36.176 82.9668 36.0214 83.1594 35.8288C83.3521 35.6362 83.5066 35.4099 83.6231 35.1478C83.7396 34.888 83.7978 34.6058 83.7978 34.3034V28.8624C83.7978 28.56 83.7396 28.2778 83.6231 28.0179C83.5066 27.7558 83.3521 27.5273 83.1594 27.328C82.9668 27.1286 82.7361 26.9741 82.4695 26.8643C82.2007 26.7545 81.9162 26.6986 81.6138 26.6986H77.6983C77.3959 26.6986 77.1137 26.7523 76.8538 26.8643C76.5917 26.9741 76.3655 27.1286 76.1729 27.328C75.9802 27.5273 75.8301 27.7581 75.7204 28.0179C75.6106 28.2778 75.5546 28.56 75.5546 28.8624V34.3034C75.5546 34.6058 75.6084 34.888 75.7204 35.1478C75.8301 35.4099 75.9802 35.6362 76.1729 35.8288C76.3655 36.0214 76.5917 36.176 76.8538 36.2925C77.1159 36.409 77.3959 36.4672 77.6983 36.4672ZM81.4279 33.768C81.4279 33.9203 81.3719 34.0458 81.2621 34.1488C81.1524 34.2518 81.0225 34.3034 80.8701 34.3034H78.4801C78.33 34.3034 78.1978 34.2518 78.0881 34.1488C77.9783 34.0458 77.9223 33.9181 77.9223 33.768V29.4C77.9223 29.2477 77.9783 29.1222 78.0881 29.0192C78.1978 28.9161 78.3277 28.8646 78.4801 28.8646H80.8701C81.0202 28.8646 81.1524 28.9161 81.2621 29.0192C81.3719 29.1222 81.4279 29.2499 81.4279 29.4V33.768ZM92.6189 33.768C92.6189 33.9203 92.5629 34.0458 92.4532 34.1488C92.3434 34.2518 92.2135 34.3034 92.0612 34.3034H90.0205C89.8682 34.3034 89.7383 34.2518 89.6285 34.1488C89.5188 34.0458 89.4628 33.9181 89.4628 33.768V29.4C89.4628 29.2477 89.5165 29.1222 89.6285 29.0192C89.7383 28.9161 89.8682 28.8646 90.0205 28.8646H92.0612C92.2113 28.8646 92.3434 28.9161 92.4532 29.0192C92.5629 29.1222 92.6189 29.2499 92.6189 29.4V30.1616L94.906 29.7494V28.8624C94.906 28.2576 94.7021 27.7469 94.2989 27.328C93.8935 26.9091 93.3828 26.6986 92.7645 26.6986H89.241C88.9386 26.6986 88.6564 26.7523 88.3965 26.8643C88.1345 26.9741 87.9082 27.1286 87.7156 27.328C87.5229 27.5273 87.3729 27.7581 87.2631 28.0179C87.1534 28.2778 87.0973 28.56 87.0973 28.8624V34.3034C87.0973 34.6058 87.1534 34.888 87.2631 35.1478C87.3729 35.4099 87.5252 35.6362 87.7156 35.8288C87.9082 36.0214 88.1345 36.176 88.3965 36.2925C88.6564 36.409 88.9386 36.4672 89.241 36.4672H92.7645C93.3828 36.4672 93.8935 36.2566 94.2989 35.8377C94.7044 35.4189 94.906 34.9059 94.906 34.3034V33.2931L92.6189 32.8809V33.768ZM100.47 30.2646C100.47 30.0854 100.515 29.9219 100.605 29.7696C100.694 29.6173 100.835 29.5075 101.028 29.4403C101.151 29.4 101.31 29.3418 101.503 29.2656C101.695 29.1894 101.897 29.1222 102.11 29.0595C102.323 28.9968 102.529 28.943 102.728 28.8937C102.927 28.8467 103.089 28.8221 103.212 28.8221C103.391 28.8221 103.528 28.8736 103.624 28.9766C103.72 29.0797 103.767 29.2073 103.767 29.3574V36.4672H106.137V28.6563C106.137 28.0515 105.949 27.5408 105.571 27.1219C105.192 26.703 104.654 26.4925 103.953 26.4925C103.707 26.4925 103.42 26.5238 103.098 26.5843C102.775 26.647 102.455 26.7254 102.139 26.8217C101.823 26.9181 101.516 27.0211 101.223 27.1309C100.927 27.2406 100.676 27.3437 100.47 27.44V22.3283L98.1002 22.7405V36.4649H100.47V30.2624V30.2646ZM109.744 36.4672H112.114V26.6986H109.744V36.4672ZM109.744 25.2358H112.114V22.5971H109.744V25.2358ZM118.502 36.4672V33.6448H115.823V36.4672H118.502ZM122.006 34.5094C122.006 35.1142 122.194 35.6249 122.572 36.0438C122.951 36.4627 123.488 36.6733 124.19 36.6733C124.698 36.6733 125.258 36.6038 125.87 36.4672C126.481 36.3305 127.041 36.1715 127.55 35.9923V36.4672H129.919V28.8624C129.919 28.56 129.863 28.2778 129.754 28.0179C129.644 27.7558 129.492 27.5273 129.301 27.328C129.109 27.1286 128.882 26.9741 128.62 26.8643C128.358 26.7545 128.078 26.6986 127.776 26.6986H124.458C123.84 26.6986 123.329 26.9002 122.924 27.3056C122.518 27.711 122.317 28.215 122.317 28.8198V29.3977L124.604 29.6442V29.3149C124.604 29.1625 124.658 29.0371 124.77 28.9341C124.879 28.831 125.009 28.7795 125.162 28.7795H126.996C127.146 28.7795 127.278 28.831 127.388 28.9341C127.498 29.0371 127.554 29.1648 127.554 29.3149V31.1293C127.348 31.0598 127.104 31.0016 126.822 30.9545C126.539 30.9053 126.248 30.8627 125.946 30.8202C125.643 30.7798 125.339 30.7485 125.03 30.7283C124.72 30.7081 124.443 30.6969 124.194 30.6969C123.493 30.6969 122.953 30.9053 122.577 31.3264C122.198 31.7453 122.01 32.256 122.01 32.8608V34.5094H122.006ZM124.313 33.1901C124.313 33.0377 124.36 32.9123 124.456 32.8093C124.552 32.7062 124.689 32.6547 124.868 32.6547C124.991 32.6547 125.146 32.657 125.332 32.6659C125.518 32.6726 125.71 32.6861 125.91 32.7062C126.109 32.7264 126.304 32.7465 126.497 32.7689C126.689 32.7891 126.853 32.8137 126.992 32.8406C127.364 32.9235 127.547 33.0736 127.547 33.2931V33.7053C127.547 33.8285 127.502 33.9248 127.413 33.9942C127.323 34.0637 127.182 34.1309 126.99 34.2003C126.853 34.2406 126.685 34.2899 126.486 34.3437C126.286 34.3974 126.091 34.4467 125.899 34.487C125.706 34.5274 125.518 34.5632 125.332 34.5901C125.146 34.6169 124.991 34.6304 124.868 34.6304C124.689 34.6304 124.552 34.5789 124.456 34.4758C124.36 34.3728 124.313 34.2451 124.313 34.095V33.1878V33.1901ZM133.524 36.4672H135.894V26.6986H133.524V36.4672ZM133.524 25.2358H135.894V22.5971H133.524V25.2358Z" fill="white"/>
<path d="M46.8292 42.4816C46.4865 42.168 45.9556 42.1904 45.642 42.5331C41.2001 47.376 34.8855 50.1536 28.3178 50.1536C15.3594 50.1536 4.81798 39.6121 4.81798 26.6537C4.81798 20.1264 7.56646 13.8387 12.3601 9.40127C12.7005 9.08543 12.7207 8.55455 12.4049 8.21407C12.089 7.87359 11.5581 7.85343 11.2177 8.16927C6.08135 12.9225 3.13574 19.6605 3.13574 26.6537C3.13574 40.5373 14.4321 51.8336 28.3156 51.8336C35.3537 51.8336 42.1185 48.8566 46.8785 43.6688C47.1921 43.3261 47.1697 42.7952 46.8269 42.4816H46.8292Z" fill="#5ABF91"/>
<path d="M46.8292 42.4816C46.4865 42.168 45.9556 42.1904 45.642 42.5331C41.2001 47.376 34.8855 50.1536 28.3178 50.1536C15.3594 50.1536 4.81798 39.6121 4.81798 26.6537C4.81798 20.1264 7.56646 13.8387 12.3601 9.40127C12.7005 9.08543 12.7207 8.55455 12.4049 8.21407C12.089 7.87359 11.5581 7.85343 11.2177 8.16927C6.08135 12.9225 3.13574 19.6605 3.13574 26.6537C3.13574 40.5373 14.4321 51.8336 28.3156 51.8336C35.3537 51.8336 42.1185 48.8566 46.8785 43.6688C47.1921 43.3261 47.1697 42.7952 46.8269 42.4816H46.8292Z" stroke="#5ABF91" stroke-width="0.224" stroke-miterlimit="10"/>
<path d="M5.7083 26.6471C5.7083 39.1172 15.8376 49.2621 28.2875 49.2621C28.6056 49.2621 28.9281 49.2554 29.2485 49.242C29.7121 49.2218 30.0705 48.832 30.0504 48.3684C30.0302 47.9047 29.6405 47.5485 29.1768 47.5642C28.8811 47.5754 28.5809 47.5821 28.2853 47.5821C16.7605 47.5821 7.38383 38.1898 7.38383 26.6471C7.38383 15.1044 16.7605 5.71204 28.2853 5.71204C28.5317 5.71204 28.7803 5.71652 29.0245 5.72548C29.4904 5.74116 29.8757 5.37828 29.8913 4.9146C29.907 4.45092 29.5464 4.06116 29.0827 4.04548C28.8206 4.03652 28.5518 4.03204 28.2853 4.03204C15.8353 4.03204 5.70605 14.177 5.70605 26.6471H5.7083Z" fill="#5ABF91"/>
<path d="M5.7083 26.6471C5.7083 39.1172 15.8376 49.2621 28.2875 49.2621C28.6056 49.2621 28.9281 49.2554 29.2485 49.242C29.7121 49.2218 30.0705 48.832 30.0504 48.3684C30.0302 47.9047 29.6405 47.5485 29.1768 47.5642C28.8811 47.5754 28.5809 47.5821 28.2853 47.5821C16.7605 47.5821 7.38383 38.1898 7.38383 26.6471C7.38383 15.1044 16.7605 5.71204 28.2853 5.71204C28.5317 5.71204 28.7803 5.71652 29.0245 5.72548C29.4904 5.74116 29.8757 5.37828 29.8913 4.9146C29.907 4.45092 29.5464 4.06116 29.0827 4.04548C28.8206 4.03652 28.5518 4.03204 28.2853 4.03204C15.8353 4.03204 5.70605 14.177 5.70605 26.6471H5.7083Z" stroke="#5ABF91" stroke-width="0.224" stroke-miterlimit="10"/>
<path d="M8.62529 26.6403C8.62529 32.1754 10.975 37.4886 15.0742 41.2138C15.2355 41.3594 15.4371 41.4311 15.6387 41.4311C15.8672 41.4311 16.0957 41.3392 16.2592 41.1555C16.5706 40.8128 16.5459 40.2819 16.2032 39.9706C12.4535 36.5613 10.303 31.7027 10.303 26.6403C10.303 16.7082 18.3827 8.62849 28.3149 8.62849C33.3011 8.62849 38.1082 10.7229 41.5062 14.3763C41.8221 14.7168 42.353 14.7347 42.6935 14.4189C43.0317 14.103 43.0519 13.5722 42.736 13.2317C39.0221 9.24001 33.7648 6.94849 28.3149 6.94849C17.4576 6.94849 8.62305 15.783 8.62305 26.6403H8.62529Z" fill="#5ABF91"/>
<path d="M8.62529 26.6403C8.62529 32.1754 10.975 37.4886 15.0742 41.2138C15.2355 41.3594 15.4371 41.4311 15.6387 41.4311C15.8672 41.4311 16.0957 41.3392 16.2592 41.1555C16.5706 40.8128 16.5459 40.2819 16.2032 39.9706C12.4535 36.5613 10.303 31.7027 10.303 26.6403C10.303 16.7082 18.3827 8.62849 28.3149 8.62849C33.3011 8.62849 38.1082 10.7229 41.5062 14.3763C41.8221 14.7168 42.353 14.7347 42.6935 14.4189C43.0317 14.103 43.0519 13.5722 42.736 13.2317C39.0221 9.24001 33.7648 6.94849 28.3149 6.94849C17.4576 6.94849 8.62305 15.783 8.62305 26.6403H8.62529Z" stroke="#5ABF91" stroke-width="0.224" stroke-miterlimit="10"/>
<path d="M44.2712 28.0067C44.7371 28.0224 45.1224 27.6617 45.1381 27.1981C45.1448 27.0054 45.1493 26.8083 45.1493 26.6112C45.1493 17.3533 37.6027 9.82239 28.3246 9.82239C19.0466 9.82239 11.5 17.3533 11.5 26.6112C11.5 26.8598 11.5067 27.1107 11.5157 27.3571C11.5358 27.8073 11.9077 28.159 12.3534 28.159C12.3669 28.159 12.3781 28.159 12.3915 28.159C12.8552 28.1389 13.2136 27.7469 13.1934 27.2854C13.1845 27.0614 13.1778 26.8352 13.1778 26.6112C13.1778 18.2784 19.9717 11.4979 28.3224 11.4979C36.6731 11.4979 43.467 18.2784 43.467 26.6112C43.467 26.7881 43.4648 26.9651 43.4581 27.1398C43.4424 27.6013 43.8053 27.991 44.269 28.0067H44.2712Z" fill="#5ABF91"/>
<path d="M44.2712 28.0067C44.7371 28.0224 45.1224 27.6617 45.1381 27.1981C45.1448 27.0054 45.1493 26.8083 45.1493 26.6112C45.1493 17.3533 37.6027 9.82239 28.3246 9.82239C19.0466 9.82239 11.5 17.3533 11.5 26.6112C11.5 26.8598 11.5067 27.1107 11.5157 27.3571C11.5358 27.8073 11.9077 28.159 12.3534 28.159C12.3669 28.159 12.3781 28.159 12.3915 28.159C12.8552 28.1389 13.2136 27.7469 13.1934 27.2854C13.1845 27.0614 13.1778 26.8352 13.1778 26.6112C13.1778 18.2784 19.9717 11.4979 28.3224 11.4979C36.6731 11.4979 43.467 18.2784 43.467 26.6112C43.467 26.7881 43.4648 26.9651 43.4581 27.1398C43.4424 27.6013 43.8053 27.991 44.269 28.0067H44.2712Z" stroke="#5ABF91" stroke-width="0.224" stroke-miterlimit="10"/>
<path d="M37.2878 37.2557C37.4894 37.2557 37.6932 37.1818 37.8545 37.0362C40.762 34.3706 42.4286 30.5828 42.4286 26.6404C42.4286 18.8653 36.1028 12.5418 28.33 12.5418C24.3048 12.5418 20.4609 14.2688 17.7864 17.2817C17.4795 17.6289 17.5109 18.1575 17.8558 18.4666C18.203 18.7735 18.7316 18.7421 19.0408 18.3972C21.3972 15.7428 24.7841 14.2218 28.33 14.2218C35.18 14.2218 40.7508 19.7949 40.7508 26.6426C40.7508 30.1146 39.2814 33.4522 36.7211 35.802C36.3806 36.1156 36.356 36.6442 36.6696 36.9869C36.8353 37.1661 37.0616 37.258 37.2878 37.258V37.2557Z" fill="#5ABF91"/>
<path d="M37.2878 37.2557C37.4894 37.2557 37.6932 37.1818 37.8545 37.0362C40.762 34.3706 42.4286 30.5828 42.4286 26.6404C42.4286 18.8653 36.1028 12.5418 28.33 12.5418C24.3048 12.5418 20.4609 14.2688 17.7864 17.2817C17.4795 17.6289 17.5109 18.1575 17.8558 18.4666C18.203 18.7735 18.7316 18.7421 19.0408 18.3972C21.3972 15.7428 24.7841 14.2218 28.33 14.2218C35.18 14.2218 40.7508 19.7949 40.7508 26.6426C40.7508 30.1146 39.2814 33.4522 36.7211 35.802C36.3806 36.1156 36.356 36.6442 36.6696 36.9869C36.8353 37.1661 37.0616 37.258 37.2878 37.258V37.2557Z" stroke="#5ABF91" stroke-width="0.224" stroke-miterlimit="10"/>
<path d="M27.4564 37.9075C27.7521 37.9322 28.0545 37.9434 28.3547 37.9434C34.5662 37.9434 39.6196 32.8765 39.6196 26.6493C39.6196 20.4221 34.5662 15.353 28.3547 15.353C28.1867 15.353 28.0187 15.3574 27.8552 15.3642C27.3937 15.3843 27.0353 15.7763 27.0555 16.2378C27.0756 16.7014 27.4699 17.0598 27.9268 17.0374C28.0657 17.0307 28.2113 17.0285 28.3524 17.0285C33.6411 17.0285 37.9441 21.3427 37.9441 26.647C37.9441 31.9514 33.6411 36.2656 28.3524 36.2656C28.0971 36.2656 27.8395 36.2544 27.5864 36.2342C27.1272 36.1984 26.724 36.5434 26.6881 37.0048C26.6523 37.4662 26.995 37.8694 27.4564 37.9075Z" fill="#5ABF91"/>
<path d="M27.4564 37.9075C27.7521 37.9322 28.0545 37.9434 28.3547 37.9434C34.5662 37.9434 39.6196 32.8765 39.6196 26.6493C39.6196 20.4221 34.5662 15.353 28.3547 15.353C28.1867 15.353 28.0187 15.3574 27.8552 15.3642C27.3937 15.3843 27.0353 15.7763 27.0555 16.2378C27.0756 16.7014 27.4699 17.0598 27.9268 17.0374C28.0657 17.0307 28.2113 17.0285 28.3524 17.0285C33.6411 17.0285 37.9441 21.3427 37.9441 26.647C37.9441 31.9514 33.6411 36.2656 28.3524 36.2656C28.0971 36.2656 27.8395 36.2544 27.5864 36.2342C27.1272 36.1984 26.724 36.5434 26.6881 37.0048C26.6523 37.4662 26.995 37.8694 27.4564 37.9075Z" stroke="#5ABF91" stroke-width="0.224" stroke-miterlimit="10"/>
<path d="M21.6031 30.7664C21.2357 31.0486 21.1685 31.575 21.4507 31.9402C23.1083 34.0906 25.6149 35.3248 28.3275 35.3248C33.1099 35.3248 37.0031 31.4339 37.0031 26.6515C37.0031 24.1203 35.901 21.7213 33.9791 20.0704C33.6274 19.768 33.0987 19.8083 32.7986 20.16C32.4962 20.5117 32.5365 21.0381 32.8882 21.3405C34.4383 22.6733 35.3275 24.6086 35.3275 26.6515C35.3275 30.511 32.1871 33.6515 28.3275 33.6515C26.1391 33.6515 24.1163 32.6547 22.7768 30.9187C22.4946 30.5536 21.9704 30.4841 21.6031 30.7664Z" fill="#5ABF91"/>
<path d="M21.6031 30.7664C21.2357 31.0486 21.1685 31.575 21.4507 31.9402C23.1083 34.0906 25.6149 35.3248 28.3275 35.3248C33.1099 35.3248 37.0031 31.4339 37.0031 26.6515C37.0031 24.1203 35.901 21.7213 33.9791 20.0704C33.6274 19.768 33.0987 19.8083 32.7986 20.16C32.4962 20.5117 32.5365 21.0381 32.8882 21.3405C34.4383 22.6733 35.3275 24.6086 35.3275 26.6515C35.3275 30.511 32.1871 33.6515 28.3275 33.6515C26.1391 33.6515 24.1163 32.6547 22.7768 30.9187C22.4946 30.5536 21.9704 30.4841 21.6031 30.7664Z" stroke="#5ABF91" stroke-width="0.224" stroke-miterlimit="10"/>
<path d="M23.4633 24.9267C23.0086 24.8439 22.574 25.1418 22.4911 25.5942C22.4262 25.9459 22.3926 26.3066 22.3926 26.6694C22.3926 29.9286 25.0537 32.5808 28.3241 32.5808C31.5945 32.5808 34.2556 29.9286 34.2556 26.6694C34.2556 26.2685 34.2153 25.8675 34.1347 25.48C34.0428 25.0298 33.6015 24.7386 33.149 24.8304C32.6966 24.9222 32.4054 25.3635 32.4972 25.8138C32.5555 26.0938 32.5846 26.3827 32.5846 26.6694C32.5846 29.0102 30.6739 30.9142 28.3241 30.9142C25.9743 30.9142 24.0636 29.0102 24.0636 26.6694C24.0636 26.4096 24.086 26.1498 24.133 25.8966C24.2159 25.4442 23.9158 25.0096 23.4633 24.9267Z" fill="#5ABF91"/>
<path d="M23.4633 24.9267C23.0086 24.8439 22.574 25.1418 22.4911 25.5942C22.4262 25.9459 22.3926 26.3066 22.3926 26.6694C22.3926 29.9286 25.0537 32.5808 28.3241 32.5808C31.5945 32.5808 34.2556 29.9286 34.2556 26.6694C34.2556 26.2685 34.2153 25.8675 34.1347 25.48C34.0428 25.0298 33.6015 24.7386 33.149 24.8304C32.6966 24.9222 32.4054 25.3635 32.4972 25.8138C32.5555 26.0938 32.5846 26.3827 32.5846 26.6694C32.5846 29.0102 30.6739 30.9142 28.3241 30.9142C25.9743 30.9142 24.0636 29.0102 24.0636 26.6694C24.0636 26.4096 24.086 26.1498 24.133 25.8966C24.2159 25.4442 23.9158 25.0096 23.4633 24.9267Z" stroke="#5ABF91" stroke-width="0.224" stroke-miterlimit="10"/>
<path d="M27.4504 25.0992C27.8111 24.8169 27.8738 24.295 27.5915 23.9344C27.3093 23.5737 26.7874 23.511 26.4267 23.7933C25.7346 24.3353 25.2955 25.1149 25.1903 25.9885C25.085 26.8621 25.3247 27.7245 25.8667 28.4166C26.4088 29.1088 27.1883 29.5478 28.0597 29.6553C28.1941 29.671 28.3285 29.68 28.4629 29.68C29.1931 29.68 29.901 29.4381 30.4856 28.9789C30.8463 28.6966 30.909 28.1747 30.6267 27.8141C30.3445 27.4534 29.8226 27.3907 29.4619 27.6729C29.1192 27.9417 28.6914 28.0605 28.2591 28.0089C27.8268 27.9552 27.4415 27.7379 27.1727 27.3952C26.9039 27.0525 26.7851 26.6246 26.8367 26.1923C26.8904 25.76 27.1077 25.3725 27.4504 25.1037V25.0992Z" fill="#5ABF91"/>
<path d="M27.4504 25.0992C27.8111 24.8169 27.8738 24.295 27.5915 23.9344C27.3093 23.5737 26.7874 23.511 26.4267 23.7933C25.7346 24.3353 25.2955 25.1149 25.1903 25.9885C25.085 26.8621 25.3247 27.7245 25.8667 28.4166C26.4088 29.1088 27.1883 29.5478 28.0597 29.6553C28.1941 29.671 28.3285 29.68 28.4629 29.68C29.1931 29.68 29.901 29.4381 30.4856 28.9789C30.8463 28.6966 30.909 28.1747 30.6267 27.8141C30.3445 27.4534 29.8226 27.3907 29.4619 27.6729C29.1192 27.9417 28.6914 28.0605 28.2591 28.0089C27.8268 27.9552 27.4415 27.7379 27.1727 27.3952C26.9039 27.0525 26.7851 26.6246 26.8367 26.1923C26.8904 25.76 27.1077 25.3725 27.4504 25.1037V25.0992Z" stroke="#5ABF91" stroke-width="0.224" stroke-miterlimit="10"/>
</svg>
