<svg width="198" height="215" viewBox="0 0 198 215" fill="none" xmlns="http://www.w3.org/2000/svg">
<path d="M195.56 172.15C194.03 170.75 191.66 170.85 190.26 172.38C170.43 194 142.24 206.4 112.92 206.4C55.07 206.4 8.01001 159.34 8.01001 101.49C8.01001 72.35 20.28 44.28 41.68 24.47C43.2 23.06 43.29 20.69 41.88 19.17C40.47 17.65 38.1 17.56 36.58 18.97C13.65 40.19 0.5 70.27 0.5 101.49C0.5 163.47 50.93 213.9 112.91 213.9C144.33 213.9 174.53 200.61 195.78 177.45C197.18 175.92 197.08 173.55 195.55 172.15H195.56Z" fill="#5ABF91"/>
<path d="M195.56 172.15C194.03 170.75 191.66 170.85 190.26 172.38C170.43 194 142.24 206.4 112.92 206.4C55.07 206.4 8.01001 159.34 8.01001 101.49C8.01001 72.35 20.28 44.28 41.68 24.47C43.2 23.06 43.29 20.69 41.88 19.17C40.47 17.65 38.1 17.56 36.58 18.97C13.65 40.19 0.5 70.27 0.5 101.49C0.5 163.47 50.93 213.9 112.91 213.9C144.33 213.9 174.53 200.61 195.78 177.45C197.18 175.92 197.08 173.55 195.55 172.15H195.56Z" stroke="#5ABF91" stroke-miterlimit="10"/>
<path d="M11.99 101.46C11.99 157.13 57.21 202.42 112.79 202.42C114.21 202.42 115.65 202.39 117.08 202.33C119.15 202.24 120.75 200.5 120.66 198.43C120.57 196.36 118.83 194.77 116.76 194.84C115.44 194.89 114.1 194.92 112.78 194.92C61.33 194.92 19.47 152.99 19.47 101.46C19.47 49.93 61.33 8 112.78 8C113.88 8 114.99 8.02 116.08 8.06C118.16 8.13 119.88 6.51 119.95 4.44C120.02 2.37 118.41 0.629998 116.34 0.559998C115.17 0.519998 113.97 0.5 112.78 0.5C57.2 0.5 11.98 45.79 11.98 101.46H11.99Z" fill="#5ABF91"/>
<path d="M11.99 101.46C11.99 157.13 57.21 202.42 112.79 202.42C114.21 202.42 115.65 202.39 117.08 202.33C119.15 202.24 120.75 200.5 120.66 198.43C120.57 196.36 118.83 194.77 116.76 194.84C115.44 194.89 114.1 194.92 112.78 194.92C61.33 194.92 19.47 152.99 19.47 101.46C19.47 49.93 61.33 8 112.78 8C113.88 8 114.99 8.02 116.08 8.06C118.16 8.13 119.88 6.51 119.95 4.44C120.02 2.37 118.41 0.629998 116.34 0.559998C115.17 0.519998 113.97 0.5 112.78 0.5C57.2 0.5 11.98 45.79 11.98 101.46H11.99Z" stroke="#5ABF91" stroke-miterlimit="10"/>
<path d="M25.01 101.43C25.01 126.14 35.5 149.86 53.8 166.49C54.52 167.14 55.42 167.46 56.32 167.46C57.34 167.46 58.36 167.05 59.09 166.23C60.48 164.7 60.37 162.33 58.84 160.94C42.1 145.72 32.5 124.03 32.5 101.43C32.5 57.09 68.57 21.02 112.91 21.02C135.17 21.02 156.63 30.37 171.8 46.68C173.21 48.2 175.58 48.28 177.1 46.87C178.61 45.46 178.7 43.09 177.29 41.57C160.71 23.75 137.24 13.52 112.91 13.52C64.44 13.52 25 52.96 25 101.43H25.01Z" fill="#5ABF91"/>
<path d="M25.01 101.43C25.01 126.14 35.5 149.86 53.8 166.49C54.52 167.14 55.42 167.46 56.32 167.46C57.34 167.46 58.36 167.05 59.09 166.23C60.48 164.7 60.37 162.33 58.84 160.94C42.1 145.72 32.5 124.03 32.5 101.43C32.5 57.09 68.57 21.02 112.91 21.02C135.17 21.02 156.63 30.37 171.8 46.68C173.21 48.2 175.58 48.28 177.1 46.87C178.61 45.46 178.7 43.09 177.29 41.57C160.71 23.75 137.24 13.52 112.91 13.52C64.44 13.52 25 52.96 25 101.43H25.01Z" stroke="#5ABF91" stroke-miterlimit="10"/>
<path d="M184.14 107.53C186.22 107.6 187.94 105.99 188.01 103.92C188.04 103.06 188.06 102.18 188.06 101.3C188.06 59.97 154.37 26.35 112.95 26.35C71.53 26.35 37.84 59.97 37.84 101.3C37.84 102.41 37.87 103.53 37.91 104.63C38 106.64 39.66 108.21 41.65 108.21C41.71 108.21 41.76 108.21 41.82 108.21C43.89 108.12 45.49 106.37 45.4 104.31C45.36 103.31 45.33 102.3 45.33 101.3C45.33 64.1 75.66 33.83 112.94 33.83C150.22 33.83 180.55 64.1 180.55 101.3C180.55 102.09 180.54 102.88 180.51 103.66C180.44 105.72 182.06 107.46 184.13 107.53H184.14Z" fill="#5ABF91"/>
<path d="M184.14 107.53C186.22 107.6 187.94 105.99 188.01 103.92C188.04 103.06 188.06 102.18 188.06 101.3C188.06 59.97 154.37 26.35 112.95 26.35C71.53 26.35 37.84 59.97 37.84 101.3C37.84 102.41 37.87 103.53 37.91 104.63C38 106.64 39.66 108.21 41.65 108.21C41.71 108.21 41.76 108.21 41.82 108.21C43.89 108.12 45.49 106.37 45.4 104.31C45.36 103.31 45.33 102.3 45.33 101.3C45.33 64.1 75.66 33.83 112.94 33.83C150.22 33.83 180.55 64.1 180.55 101.3C180.55 102.09 180.54 102.88 180.51 103.66C180.44 105.72 182.06 107.46 184.13 107.53H184.14Z" stroke="#5ABF91" stroke-miterlimit="10"/>
<path d="M152.97 148.82C153.87 148.82 154.78 148.49 155.5 147.84C168.48 135.94 175.92 119.03 175.92 101.43C175.92 66.72 147.68 38.49 112.98 38.49C95.01 38.49 77.8501 46.2 65.9101 59.65C64.5401 61.2 64.6801 63.56 66.2201 64.94C67.7701 66.31 70.13 66.17 71.51 64.63C82.03 52.78 97.15 45.99 112.98 45.99C143.56 45.99 168.43 70.87 168.43 101.44C168.43 116.94 161.87 131.84 150.44 142.33C148.92 143.73 148.81 146.09 150.21 147.62C150.95 148.42 151.96 148.83 152.97 148.83V148.82Z" fill="#5ABF91"/>
<path d="M152.97 148.82C153.87 148.82 154.78 148.49 155.5 147.84C168.48 135.94 175.92 119.03 175.92 101.43C175.92 66.72 147.68 38.49 112.98 38.49C95.01 38.49 77.8501 46.2 65.9101 59.65C64.5401 61.2 64.6801 63.56 66.2201 64.94C67.7701 66.31 70.13 66.17 71.51 64.63C82.03 52.78 97.15 45.99 112.98 45.99C143.56 45.99 168.43 70.87 168.43 101.44C168.43 116.94 161.87 131.84 150.44 142.33C148.92 143.73 148.81 146.09 150.21 147.62C150.95 148.42 151.96 148.83 152.97 148.83V148.82Z" stroke="#5ABF91" stroke-miterlimit="10"/>
<path d="M109.08 151.73C110.4 151.84 111.75 151.89 113.09 151.89C140.82 151.89 163.38 129.27 163.38 101.47C163.38 73.67 140.82 51.04 113.09 51.04C112.34 51.04 111.59 51.06 110.86 51.09C108.8 51.18 107.2 52.93 107.29 54.99C107.38 57.06 109.14 58.66 111.18 58.56C111.8 58.53 112.45 58.52 113.08 58.52C136.69 58.52 155.9 77.78 155.9 101.46C155.9 125.14 136.69 144.4 113.08 144.4C111.94 144.4 110.79 144.35 109.66 144.26C107.61 144.1 105.81 145.64 105.65 147.7C105.49 149.76 107.02 151.56 109.08 151.73Z" fill="#5ABF91"/>
<path d="M109.08 151.73C110.4 151.84 111.75 151.89 113.09 151.89C140.82 151.89 163.38 129.27 163.38 101.47C163.38 73.67 140.82 51.04 113.09 51.04C112.34 51.04 111.59 51.06 110.86 51.09C108.8 51.18 107.2 52.93 107.29 54.99C107.38 57.06 109.14 58.66 111.18 58.56C111.8 58.53 112.45 58.52 113.08 58.52C136.69 58.52 155.9 77.78 155.9 101.46C155.9 125.14 136.69 144.4 113.08 144.4C111.94 144.4 110.79 144.35 109.66 144.26C107.61 144.1 105.81 145.64 105.65 147.7C105.49 149.76 107.02 151.56 109.08 151.73Z" stroke="#5ABF91" stroke-miterlimit="10"/>
<path d="M82.95 119.85C81.31 121.11 81.01 123.46 82.27 125.09C89.67 134.69 100.86 140.2 112.97 140.2C134.32 140.2 151.7 122.83 151.7 101.48C151.7 90.18 146.78 79.47 138.2 72.1C136.63 70.75 134.27 70.93 132.93 72.5C131.58 74.07 131.76 76.42 133.33 77.77C140.25 83.72 144.22 92.36 144.22 101.48C144.22 118.71 130.2 132.73 112.97 132.73C103.2 132.73 94.17 128.28 88.19 120.53C86.93 118.9 84.59 118.59 82.95 119.85Z" fill="#5ABF91"/>
<path d="M82.95 119.85C81.31 121.11 81.01 123.46 82.27 125.09C89.67 134.69 100.86 140.2 112.97 140.2C134.32 140.2 151.7 122.83 151.7 101.48C151.7 90.18 146.78 79.47 138.2 72.1C136.63 70.75 134.27 70.93 132.93 72.5C131.58 74.07 131.76 76.42 133.33 77.77C140.25 83.72 144.22 92.36 144.22 101.48C144.22 118.71 130.2 132.73 112.97 132.73C103.2 132.73 94.17 128.28 88.19 120.53C86.93 118.9 84.59 118.59 82.95 119.85Z" stroke="#5ABF91" stroke-miterlimit="10"/>
<path d="M91.25 93.78C89.22 93.41 87.28 94.74 86.91 96.76C86.62 98.33 86.47 99.94 86.47 101.56C86.47 116.11 98.35 127.95 112.95 127.95C127.55 127.95 139.43 116.11 139.43 101.56C139.43 99.77 139.25 97.98 138.89 96.25C138.48 94.24 136.51 92.94 134.49 93.35C132.47 93.76 131.17 95.73 131.58 97.74C131.84 98.99 131.97 100.28 131.97 101.56C131.97 112.01 123.44 120.51 112.95 120.51C102.46 120.51 93.93 112.01 93.93 101.56C93.93 100.4 94.03 99.24 94.24 98.11C94.61 96.09 93.27 94.15 91.25 93.78Z" fill="#5ABF91"/>
<path d="M91.25 93.78C89.22 93.41 87.28 94.74 86.91 96.76C86.62 98.33 86.47 99.94 86.47 101.56C86.47 116.11 98.35 127.95 112.95 127.95C127.55 127.95 139.43 116.11 139.43 101.56C139.43 99.77 139.25 97.98 138.89 96.25C138.48 94.24 136.51 92.94 134.49 93.35C132.47 93.76 131.17 95.73 131.58 97.74C131.84 98.99 131.97 100.28 131.97 101.56C131.97 112.01 123.44 120.51 112.95 120.51C102.46 120.51 93.93 112.01 93.93 101.56C93.93 100.4 94.03 99.24 94.24 98.11C94.61 96.09 93.27 94.15 91.25 93.78Z" stroke="#5ABF91" stroke-miterlimit="10"/>
<path d="M109.05 94.55C110.66 93.29 110.94 90.96 109.68 89.35C108.42 87.74 106.09 87.46 104.48 88.72C101.39 91.14 99.43 94.62 98.96 98.52C98.49 102.42 99.56 106.27 101.98 109.36C104.4 112.45 107.88 114.41 111.77 114.89C112.37 114.96 112.97 115 113.57 115C116.83 115 119.99 113.92 122.6 111.87C124.21 110.61 124.49 108.28 123.23 106.67C121.97 105.06 119.64 104.78 118.03 106.04C116.5 107.24 114.59 107.77 112.66 107.54C110.73 107.3 109.01 106.33 107.81 104.8C106.61 103.27 106.08 101.36 106.31 99.43C106.55 97.5 107.52 95.77 109.05 94.57V94.55Z" fill="#5ABF91"/>
<path d="M109.05 94.55C110.66 93.29 110.94 90.96 109.68 89.35C108.42 87.74 106.09 87.46 104.48 88.72C101.39 91.14 99.43 94.62 98.96 98.52C98.49 102.42 99.56 106.27 101.98 109.36C104.4 112.45 107.88 114.41 111.77 114.89C112.37 114.96 112.97 115 113.57 115C116.83 115 119.99 113.92 122.6 111.87C124.21 110.61 124.49 108.28 123.23 106.67C121.97 105.06 119.64 104.78 118.03 106.04C116.5 107.24 114.59 107.77 112.66 107.54C110.73 107.3 109.01 106.33 107.81 104.8C106.61 103.27 106.08 101.36 106.31 99.43C106.55 97.5 107.52 95.77 109.05 94.57V94.55Z" stroke="#5ABF91" stroke-miterlimit="10"/>
</svg>
