<svg width="575" height="161" viewBox="0 0 575 161" fill="none" xmlns="http://www.w3.org/2000/svg">
<path d="M146.624 129.072C145.477 128.023 143.7 128.097 142.65 129.245C127.783 145.455 106.647 154.752 84.6635 154.752C41.2896 154.752 6.00563 119.468 6.00563 76.0937C6.00563 54.2455 15.2052 33.1996 31.2502 18.3468C32.3899 17.2896 32.4574 15.5127 31.4002 14.373C30.343 13.2334 28.5661 13.1659 27.4264 14.2231C10.2343 30.1331 0.374878 52.686 0.374878 76.0937C0.374878 122.564 38.1856 160.375 84.6561 160.375C108.214 160.375 130.857 150.41 146.789 133.046C147.839 131.899 147.764 130.122 146.617 129.072H146.624Z" fill="#5ABF91"/>
<path d="M146.624 129.072C145.477 128.023 143.7 128.097 142.65 129.245C127.783 145.455 106.647 154.752 84.6635 154.752C41.2896 154.752 6.00563 119.468 6.00563 76.0937C6.00563 54.2455 15.2052 33.1996 31.2502 18.3468C32.3899 17.2896 32.4574 15.5127 31.4002 14.373C30.343 13.2334 28.5661 13.1659 27.4264 14.2231C10.2343 30.1331 0.374878 52.686 0.374878 76.0937C0.374878 122.564 38.1856 160.375 84.6561 160.375C108.214 160.375 130.857 150.41 146.789 133.046C147.839 131.899 147.764 130.122 146.617 129.072H146.624Z" stroke="#5ABF91" stroke-width="0.749766" stroke-miterlimit="10"/>
<path d="M8.98968 76.0712C8.98968 117.811 42.8941 151.768 84.5661 151.768C85.6308 151.768 86.7104 151.745 87.7826 151.7C89.3346 151.633 90.5342 150.328 90.4667 148.776C90.3993 147.224 89.0947 146.032 87.5426 146.084C86.553 146.122 85.5483 146.144 84.5586 146.144C45.9831 146.144 14.598 114.707 14.598 76.0712C14.598 37.4358 45.9831 5.99812 84.5586 5.99812C85.3833 5.99812 86.2156 6.01311 87.0328 6.0431C88.5923 6.09559 89.8819 4.88097 89.9344 3.32896C89.9869 1.77694 88.7798 0.472346 87.2278 0.419862C86.3505 0.389871 85.4508 0.374878 84.5586 0.374878C42.8866 0.374878 8.98218 34.3318 8.98218 76.0712H8.98968Z" fill="#5ABF91"/>
<path d="M8.98968 76.0712C8.98968 117.811 42.8941 151.768 84.5661 151.768C85.6308 151.768 86.7104 151.745 87.7826 151.7C89.3346 151.633 90.5342 150.328 90.4667 148.776C90.3993 147.224 89.0947 146.032 87.5426 146.084C86.553 146.122 85.5483 146.144 84.5586 146.144C45.9831 146.144 14.598 114.707 14.598 76.0712C14.598 37.4358 45.9831 5.99812 84.5586 5.99812C85.3833 5.99812 86.2156 6.01311 87.0328 6.0431C88.5923 6.09559 89.8819 4.88097 89.9344 3.32896C89.9869 1.77694 88.7798 0.472346 87.2278 0.419862C86.3505 0.389871 85.4508 0.374878 84.5586 0.374878C42.8866 0.374878 8.98218 34.3318 8.98218 76.0712H8.98968Z" stroke="#5ABF91" stroke-width="0.749766" stroke-miterlimit="10"/>
<path d="M18.7516 76.0487C18.7516 94.5754 26.6167 112.36 40.3374 124.828C40.8772 125.316 41.552 125.556 42.2268 125.556C42.9916 125.556 43.7563 125.248 44.3037 124.634C45.3458 123.486 45.2634 121.709 44.1162 120.667C31.5652 109.256 24.3674 92.9934 24.3674 76.0487C24.3674 42.8041 51.4115 15.7601 84.6561 15.7601C101.346 15.7601 117.436 22.7704 128.81 34.9991C129.867 36.1387 131.644 36.1987 132.784 35.1415C133.916 34.0844 133.983 32.3074 132.926 31.1678C120.495 17.807 102.898 10.1368 84.6561 10.1368C48.3149 10.1368 18.7441 39.7076 18.7441 76.0487H18.7516Z" fill="#5ABF91"/>
<path d="M18.7516 76.0487C18.7516 94.5754 26.6167 112.36 40.3374 124.828C40.8772 125.316 41.552 125.556 42.2268 125.556C42.9916 125.556 43.7563 125.248 44.3037 124.634C45.3458 123.486 45.2634 121.709 44.1162 120.667C31.5652 109.256 24.3674 92.9934 24.3674 76.0487C24.3674 42.8041 51.4115 15.7601 84.6561 15.7601C101.346 15.7601 117.436 22.7704 128.81 34.9991C129.867 36.1387 131.644 36.1987 132.784 35.1415C133.916 34.0844 133.983 32.3074 132.926 31.1678C120.495 17.807 102.898 10.1368 84.6561 10.1368C48.3149 10.1368 18.7441 39.7076 18.7441 76.0487H18.7516Z" stroke="#5ABF91" stroke-width="0.749766" stroke-miterlimit="10"/>
<path d="M138.062 80.6223C139.621 80.6748 140.911 79.4677 140.963 77.9156C140.986 77.2708 141.001 76.6111 141.001 75.9513C141.001 44.9635 115.741 19.7563 84.686 19.7563C53.6307 19.7563 28.3712 44.9635 28.3712 75.9513C28.3712 76.7835 28.3937 77.6233 28.4236 78.448C28.4911 79.955 29.7357 81.1322 31.2278 81.1322C31.2727 81.1322 31.3102 81.1322 31.3552 81.1322C32.9072 81.0647 34.1069 79.7526 34.0394 78.2081C34.0094 77.4583 33.9869 76.701 33.9869 75.9513C33.9869 48.06 56.7273 25.3646 84.6785 25.3646C112.63 25.3646 135.37 48.06 135.37 75.9513C135.37 76.5436 135.363 77.1359 135.34 77.7207C135.288 79.2652 136.502 80.5699 138.054 80.6223H138.062Z" fill="#5ABF91"/>
<path d="M138.062 80.6223C139.621 80.6748 140.911 79.4677 140.963 77.9156C140.986 77.2708 141.001 76.6111 141.001 75.9513C141.001 44.9635 115.741 19.7563 84.686 19.7563C53.6307 19.7563 28.3712 44.9635 28.3712 75.9513C28.3712 76.7835 28.3937 77.6233 28.4236 78.448C28.4911 79.955 29.7357 81.1322 31.2278 81.1322C31.2727 81.1322 31.3102 81.1322 31.3552 81.1322C32.9072 81.0647 34.1069 79.7526 34.0394 78.2081C34.0094 77.4583 33.9869 76.701 33.9869 75.9513C33.9869 48.06 56.7273 25.3646 84.6785 25.3646C112.63 25.3646 135.37 48.06 135.37 75.9513C135.37 76.5436 135.363 77.1359 135.34 77.7207C135.288 79.2652 136.502 80.5699 138.054 80.6223H138.062Z" stroke="#5ABF91" stroke-width="0.749766" stroke-miterlimit="10"/>
<path d="M114.692 111.58C115.366 111.58 116.049 111.333 116.589 110.845C126.321 101.923 131.899 89.2446 131.899 76.0487C131.899 50.0243 110.725 28.8585 84.7085 28.8585C71.2352 28.8585 58.3693 34.6392 49.4171 44.7235C48.3899 45.8856 48.4949 47.6551 49.6495 48.6898C50.8117 49.7169 52.5811 49.612 53.6158 48.4573C61.5033 39.5726 72.8397 34.4817 84.7085 34.4817C107.636 34.4817 126.283 53.1359 126.283 76.0562C126.283 87.6776 121.365 98.8491 112.795 106.714C111.655 107.764 111.573 109.533 112.622 110.68C113.177 111.28 113.934 111.588 114.692 111.588V111.58Z" fill="#5ABF91"/>
<path d="M114.692 111.58C115.366 111.58 116.049 111.333 116.589 110.845C126.321 101.923 131.899 89.2446 131.899 76.0487C131.899 50.0243 110.725 28.8585 84.7085 28.8585C71.2352 28.8585 58.3693 34.6392 49.4171 44.7235C48.3899 45.8856 48.4949 47.6551 49.6495 48.6898C50.8117 49.7169 52.5811 49.612 53.6158 48.4573C61.5033 39.5726 72.8397 34.4817 84.7085 34.4817C107.636 34.4817 126.283 53.1359 126.283 76.0562C126.283 87.6776 121.365 98.8491 112.795 106.714C111.655 107.764 111.573 109.533 112.622 110.68C113.177 111.28 113.934 111.588 114.692 111.588V111.58Z" stroke="#5ABF91" stroke-width="0.749766" stroke-miterlimit="10"/>
<path d="M81.7845 113.762C82.7742 113.844 83.7863 113.882 84.791 113.882C105.582 113.882 122.497 96.9222 122.497 76.0787C122.497 55.2352 105.582 38.2681 84.791 38.2681C84.2287 38.2681 83.6664 38.2831 83.119 38.3055C81.5745 38.373 80.3749 39.6851 80.4424 41.2296C80.5099 42.7816 81.8294 43.9813 83.359 43.9063C83.8238 43.8838 84.3112 43.8763 84.7835 43.8763C102.485 43.8763 116.888 58.3168 116.888 76.0713C116.888 93.8257 102.485 108.266 84.7835 108.266C83.9288 108.266 83.0666 108.229 82.2193 108.161C80.6823 108.041 79.3327 109.196 79.2128 110.74C79.0928 112.285 80.2399 113.634 81.7845 113.762Z" fill="#5ABF91"/>
<path d="M81.7845 113.762C82.7742 113.844 83.7863 113.882 84.791 113.882C105.582 113.882 122.497 96.9222 122.497 76.0787C122.497 55.2352 105.582 38.2681 84.791 38.2681C84.2287 38.2681 83.6664 38.2831 83.119 38.3055C81.5745 38.373 80.3749 39.6851 80.4424 41.2296C80.5099 42.7816 81.8294 43.9813 83.359 43.9063C83.8238 43.8838 84.3112 43.8763 84.7835 43.8763C102.485 43.8763 116.888 58.3168 116.888 76.0713C116.888 93.8257 102.485 108.266 84.7835 108.266C83.9288 108.266 83.0666 108.229 82.2193 108.161C80.6823 108.041 79.3327 109.196 79.2128 110.74C79.0928 112.285 80.2399 113.634 81.7845 113.762Z" stroke="#5ABF91" stroke-width="0.749766" stroke-miterlimit="10"/>
<path d="M62.1931 89.8594C60.9635 90.8041 60.7385 92.5661 61.6832 93.7882C67.2315 100.986 75.6214 105.117 84.7011 105.117C100.709 105.117 113.739 92.0937 113.739 76.0862C113.739 67.6138 110.051 59.5839 103.618 54.0581C102.44 53.0459 100.671 53.1809 99.6663 54.358C98.6542 55.5351 98.7891 57.2971 99.9663 58.3093C105.155 62.7704 108.131 69.2483 108.131 76.0862C108.131 89.0047 97.6195 99.5164 84.7011 99.5164C77.3758 99.5164 70.6054 96.1799 66.1218 90.3693C65.1771 89.1471 63.4227 88.9147 62.1931 89.8594Z" fill="#5ABF91"/>
<path d="M62.1931 89.8594C60.9635 90.8041 60.7385 92.5661 61.6832 93.7882C67.2315 100.986 75.6214 105.117 84.7011 105.117C100.709 105.117 113.739 92.0937 113.739 76.0862C113.739 67.6138 110.051 59.5839 103.618 54.0581C102.44 53.0459 100.671 53.1809 99.6663 54.358C98.6542 55.5351 98.7891 57.2971 99.9663 58.3093C105.155 62.7704 108.131 69.2483 108.131 76.0862C108.131 89.0047 97.6195 99.5164 84.7011 99.5164C77.3758 99.5164 70.6054 96.1799 66.1218 90.3693C65.1771 89.1471 63.4227 88.9147 62.1931 89.8594Z" stroke="#5ABF91" stroke-width="0.749766" stroke-miterlimit="10"/>
<path d="M68.4161 70.313C66.8941 70.0356 65.4396 71.0328 65.1622 72.5473C64.9447 73.7245 64.8323 74.9316 64.8323 76.1462C64.8323 87.0553 73.7395 95.9325 84.6861 95.9325C95.6326 95.9325 104.54 87.0553 104.54 76.1462C104.54 74.8041 104.405 73.462 104.135 72.1649C103.828 70.6579 102.351 69.6832 100.836 69.9906C99.3215 70.298 98.3468 71.7751 98.6542 73.2821C98.8491 74.2193 98.9466 75.1865 98.9466 76.1462C98.9466 83.9812 92.5511 90.3543 84.6861 90.3543C76.821 90.3543 70.4255 83.9812 70.4255 76.1462C70.4255 75.2765 70.5005 74.4067 70.6579 73.5595C70.9353 72.045 69.9307 70.5905 68.4161 70.313Z" fill="#5ABF91"/>
<path d="M68.4161 70.313C66.8941 70.0356 65.4396 71.0328 65.1622 72.5473C64.9447 73.7245 64.8323 74.9316 64.8323 76.1462C64.8323 87.0553 73.7395 95.9325 84.6861 95.9325C95.6326 95.9325 104.54 87.0553 104.54 76.1462C104.54 74.8041 104.405 73.462 104.135 72.1649C103.828 70.6579 102.351 69.6832 100.836 69.9906C99.3215 70.298 98.3468 71.7751 98.6542 73.2821C98.8491 74.2193 98.9466 75.1865 98.9466 76.1462C98.9466 83.9812 92.5511 90.3543 84.6861 90.3543C76.821 90.3543 70.4255 83.9812 70.4255 76.1462C70.4255 75.2765 70.5005 74.4067 70.6579 73.5595C70.9353 72.045 69.9307 70.5905 68.4161 70.313Z" stroke="#5ABF91" stroke-width="0.749766" stroke-miterlimit="10"/>
<path d="M81.7619 70.8903C82.9691 69.9456 83.179 68.1987 82.2343 66.9915C81.2896 65.7844 79.5426 65.5745 78.3355 66.5192C76.0187 68.3336 74.5492 70.9428 74.1968 73.8669C73.8444 76.791 74.6467 79.6776 76.4611 81.9944C78.2755 84.3111 80.8847 85.7807 83.8013 86.1406C84.2512 86.1931 84.701 86.223 85.1509 86.223C87.5951 86.223 89.9644 85.4133 91.9213 83.8763C93.1284 82.9316 93.3383 81.1846 92.3936 79.9775C91.4489 78.7704 89.702 78.5604 88.4949 79.5051C87.3477 80.4048 85.9157 80.8022 84.4686 80.6298C83.0216 80.4498 81.732 79.7226 80.8322 78.5754C79.9325 77.4283 79.5352 75.9962 79.7076 74.5492C79.8875 73.1021 80.6148 71.8051 81.7619 70.9053V70.8903Z" fill="#5ABF91"/>
<path d="M81.7619 70.8903C82.9691 69.9456 83.179 68.1987 82.2343 66.9915C81.2896 65.7844 79.5426 65.5745 78.3355 66.5192C76.0187 68.3336 74.5492 70.9428 74.1968 73.8669C73.8444 76.791 74.6467 79.6776 76.4611 81.9944C78.2755 84.3111 80.8847 85.7807 83.8013 86.1406C84.2512 86.1931 84.701 86.223 85.1509 86.223C87.5951 86.223 89.9644 85.4133 91.9213 83.8763C93.1284 82.9316 93.3383 81.1846 92.3936 79.9775C91.4489 78.7704 89.702 78.5604 88.4949 79.5051C87.3477 80.4048 85.9157 80.8022 84.4686 80.6298C83.0216 80.4498 81.732 79.7226 80.8322 78.5754C79.9325 77.4283 79.5352 75.9962 79.7076 74.5492C79.8875 73.1021 80.6148 71.8051 81.7619 70.9053V70.8903Z" stroke="#5ABF91" stroke-width="0.749766" stroke-miterlimit="10"/>
<path d="M180.529 57.8328H199.249V115.341H211.661V57.8328H230.381V46.4549H180.529V57.8328ZM260.073 65.2756C257.454 66.2425 255.003 67.2769 252.732 68.3787C250.461 69.4805 248.178 70.5822 245.907 71.684V66.3099H234.012V115.341H245.907V86.6935C245.907 84.8946 246.84 83.5229 248.695 82.5561C250.494 81.5892 252.439 80.6222 254.542 79.6553C256.644 78.6885 258.735 77.789 260.804 76.9683L260.085 65.2756H260.073ZM282.413 115.341H302.066C303.584 115.341 305.012 115.048 306.361 114.464C307.71 113.879 308.857 113.103 309.824 112.136C310.79 111.169 311.566 110.034 312.151 108.718C312.735 107.414 313.028 105.998 313.028 104.48V77.1706C313.028 75.6528 312.735 74.2363 312.151 72.9321C311.566 71.6166 310.79 70.4698 309.824 69.4692C308.857 68.4686 307.699 67.6928 306.361 67.1419C305.012 66.591 303.584 66.3099 302.066 66.3099H282.413C280.895 66.3099 279.479 66.5798 278.175 67.1419C276.859 67.6928 275.724 68.4686 274.757 69.4692C273.79 70.4698 273.037 71.6279 272.486 72.9321C271.935 74.2363 271.654 75.6528 271.654 77.1706V104.48C271.654 105.998 271.923 107.414 272.486 108.718C273.037 110.034 273.79 111.169 274.757 112.136C275.724 113.103 276.859 113.879 278.175 114.464C279.49 115.048 280.895 115.341 282.413 115.341ZM301.133 101.793C301.133 102.557 300.852 103.187 300.301 103.704C299.75 104.221 299.098 104.48 298.333 104.48H286.337C285.584 104.48 284.92 104.221 284.369 103.704C283.819 103.187 283.537 102.546 283.537 101.793V79.869C283.537 79.1044 283.819 78.4748 284.369 77.9576C284.92 77.4405 285.572 77.1819 286.337 77.1819H298.333C299.087 77.1819 299.75 77.4405 300.301 77.9576C300.852 78.4748 301.133 79.1157 301.133 79.869V101.793ZM357.303 101.793C357.303 102.557 357.022 103.187 356.471 103.704C355.92 104.221 355.268 104.48 354.503 104.48H344.261C343.496 104.48 342.844 104.221 342.293 103.704C341.742 103.187 341.461 102.546 341.461 101.793V79.869C341.461 79.1044 341.731 78.4748 342.293 77.9576C342.844 77.4405 343.496 77.1819 344.261 77.1819H354.503C355.256 77.1819 355.92 77.4405 356.471 77.9576C357.022 78.4748 357.303 79.1157 357.303 79.869V83.6916L368.782 81.6229V77.1706C368.782 74.135 367.759 71.5716 365.735 69.4692C363.7 67.3668 361.136 66.3099 358.033 66.3099H340.348C338.83 66.3099 337.414 66.5798 336.11 67.1419C334.794 67.6928 333.659 68.4686 332.692 69.4692C331.725 70.4698 330.972 71.6279 330.421 72.9321C329.87 74.2363 329.589 75.6528 329.589 77.1706V104.48C329.589 105.998 329.87 107.414 330.421 108.718C330.972 110.034 331.736 111.169 332.692 112.136C333.659 113.103 334.794 113.879 336.11 114.464C337.414 115.048 338.83 115.341 340.348 115.341H358.033C361.136 115.341 363.7 114.284 365.735 112.181C367.77 110.079 368.782 107.504 368.782 104.48V99.4093L357.303 97.3405V101.793ZM396.709 84.2087C396.709 83.3093 396.934 82.4886 397.384 81.7241C397.834 80.9596 398.542 80.4086 399.509 80.0713C400.127 79.869 400.925 79.5767 401.892 79.1944C402.859 78.8122 403.871 78.4748 404.939 78.16C406.007 77.8452 407.042 77.5754 408.042 77.328C409.043 77.0919 409.852 76.9683 410.471 76.9683C411.37 76.9683 412.056 77.2268 412.539 77.744C413.023 78.2612 413.259 78.9021 413.259 79.6553V115.341H425.154V76.1363C425.154 73.1007 424.21 70.5373 422.31 68.4349C420.409 66.3324 417.711 65.2756 414.192 65.2756C412.955 65.2756 411.516 65.433 409.897 65.7365C408.278 66.0513 406.67 66.4448 405.085 66.9283C403.5 67.4117 401.96 67.9289 400.487 68.4798C399.003 69.0307 397.744 69.5479 396.709 70.0314V44.3749L384.814 46.4436V115.329H396.709V84.1975V84.2087ZM443.255 115.341H455.15V66.3099H443.255V115.341ZM443.255 58.9682H455.15V45.724H443.255V58.9682ZM487.215 115.341V101.174H473.769V115.341H487.215ZM504.799 105.514C504.799 108.55 505.744 111.113 507.644 113.216C509.544 115.318 512.242 116.375 515.761 116.375C518.313 116.375 521.124 116.026 524.193 115.341C527.263 114.655 530.073 113.856 532.626 112.957V115.341H544.521V77.1706C544.521 75.6528 544.24 74.2363 543.689 72.9321C543.138 71.6166 542.373 70.4698 541.418 69.4692C540.451 68.4686 539.315 67.6928 538 67.1419C536.684 66.591 535.279 66.3099 533.761 66.3099H517.11C514.007 66.3099 511.444 67.3218 509.409 69.3568C507.374 71.3918 506.362 73.9214 506.362 76.957V79.8577L517.841 81.0945V79.4417C517.841 78.6772 518.111 78.0476 518.673 77.5304C519.224 77.0132 519.876 76.7546 520.641 76.7546H529.849C530.602 76.7546 531.265 77.0132 531.816 77.5304C532.367 78.0476 532.648 78.6884 532.648 79.4417V88.5485C531.614 88.2 530.388 87.9077 528.972 87.6716C527.555 87.4242 526.093 87.2107 524.576 86.997C523.058 86.7947 521.529 86.6372 519.977 86.536C518.426 86.4349 517.032 86.3786 515.784 86.3786C512.265 86.3786 509.555 87.4242 507.666 89.5379C505.766 91.6403 504.822 94.2038 504.822 97.2394V105.514H504.799ZM516.379 98.8921C516.379 98.1275 516.616 97.4979 517.099 96.9807C517.582 96.4636 518.268 96.205 519.168 96.205C519.786 96.205 520.562 96.2163 521.495 96.2612C522.428 96.295 523.395 96.3624 524.396 96.4636C525.396 96.5648 526.374 96.6659 527.341 96.7784C528.308 96.8796 529.129 97.0032 529.826 97.1382C531.692 97.5542 532.614 98.3075 532.614 99.4093V101.478C532.614 102.096 532.39 102.58 531.94 102.928C531.49 103.277 530.782 103.614 529.815 103.963C529.129 104.165 528.286 104.412 527.285 104.682C526.285 104.952 525.306 105.199 524.34 105.402C523.373 105.604 522.428 105.784 521.495 105.919C520.562 106.054 519.786 106.121 519.168 106.121C518.268 106.121 517.582 105.863 517.099 105.346C516.616 104.828 516.379 104.188 516.379 103.434V98.8808V98.8921ZM562.611 115.341H574.506V66.3099H562.611V115.341ZM562.611 58.9682H574.506V45.724H562.611V58.9682Z" fill="#F8FAFC"/>
</svg>
