<svg width="260" height="260" viewBox="0 0 260 260" fill="none" xmlns="http://www.w3.org/2000/svg">
<path d="M135.687 180C131.147 180 127.467 176.32 127.467 171.78V121.269V106.587V100.568C127.467 99.6485 127.301 98.737 126.977 97.8769C125.675 94.4198 122.084 92.3915 118.451 93.061L106.303 95.2997C97.0577 97.0037 93.3825 83.8256 102.176 80.4987C103.048 80.1686 103.973 79.9995 104.905 79.9995H119.864C123.53 79.9995 127.161 80.6989 130.564 82.0601L132.445 82.8124C134.587 83.6691 136.546 84.9244 138.22 86.5118C141.85 89.9545 143.906 94.7376 143.906 99.7406V106.587V121.269V171.78C143.906 176.32 140.226 180 135.687 180Z" fill="#FFFEFC"/>
<rect x="16.1087" y="163.562" width="227.397" height="16.4384" rx="8.21918" fill="#FFFEFC"/>
<rect x="36.657" y="144.384" width="186.301" height="16.4384" rx="8.21918" fill="#FFFEFC"/>
<rect x="57.2054" y="125.206" width="145.205" height="16.4384" rx="8.21918" fill="#FFFEFC"/>
<rect x="77.7524" y="106.028" width="104.11" height="16.4384" rx="8.21918" fill="#FFFEFC"/>
</svg>
