<svg width="260" height="260" viewBox="0 0 260 260" fill="none" xmlns="http://www.w3.org/2000/svg">
<path d="M104.394 16.6211C57.8831 16.6211 20.1826 54.3216 20.1826 100.832V128.812C29.374 114.662 42.1213 101.177 56.9726 93.2402C66.2254 88.2938 76.1796 84.8363 86.5398 82.9783C91.5847 82.0802 96.9986 81.6618 104.123 81.6618L197.808 81.871C220.079 81.9325 238.166 63.8821 238.166 41.5989V16.6211H104.394Z" fill="#EF444A"/>
<path d="M20.1827 182.286C20.1827 144.18 45.5911 110.552 81.9751 100.512C87.7088 98.9371 93.8733 98.125 100.272 98.125H174.947V128.997C174.947 147.674 159.8 162.821 141.122 162.821H104.394C45.8987 162.834 29.8539 181.856 20.195 208.716V182.286H20.1827Z" fill="#EF444A"/>
<path d="M75.2814 242.639C58.4737 242.639 44.8036 228.97 44.8036 212.161C44.8036 195.354 58.4737 181.684 75.2814 181.684C92.0892 181.684 105.759 195.354 105.759 212.161C105.759 228.97 92.0892 242.639 75.2814 242.639Z" fill="#EFEDED"/>
</svg>
