<svg width="227" height="246" viewBox="0 0 227 246" fill="none" xmlns="http://www.w3.org/2000/svg">
<path d="M224.248 197.404C222.494 195.8 219.776 195.913 218.171 197.668C195.433 222.46 163.107 236.679 129.485 236.679C63.1488 236.679 9.1851 182.715 9.1851 116.378C9.1851 82.9634 23.255 50.7755 47.7944 28.0595C49.5375 26.4426 49.6408 23.725 48.0239 21.9819C46.407 20.239 43.6894 20.1357 41.9463 21.7526C15.6525 46.0856 0.573364 80.5782 0.573364 116.378C0.573364 187.45 58.4015 245.279 129.474 245.279C165.504 245.279 200.134 230.038 224.501 203.482C226.107 201.728 225.992 199.01 224.238 197.404H224.248Z" fill="#5ABF91"/>
<path d="M224.248 197.404C222.494 195.8 219.776 195.913 218.171 197.668C195.433 222.46 163.107 236.679 129.485 236.679C63.1488 236.679 9.1851 182.715 9.1851 116.378C9.1851 82.9634 23.255 50.7755 47.7944 28.0595C49.5375 26.4426 49.6408 23.725 48.0239 21.9819C46.407 20.239 43.6894 20.1357 41.9463 21.7526C15.6525 46.0856 0.573364 80.5782 0.573364 116.378C0.573364 187.45 58.4015 245.279 129.474 245.279C165.504 245.279 200.134 230.038 224.501 203.482C226.107 201.728 225.992 199.01 224.238 197.404H224.248Z" stroke="#5ABF91" stroke-width="1.1467" stroke-miterlimit="10"/>
<path d="M13.7489 116.344C13.7489 180.181 65.6028 232.116 129.336 232.116C130.965 232.116 132.616 232.08 134.256 232.012C136.629 231.909 138.464 229.913 138.361 227.54C138.258 225.166 136.263 223.343 133.889 223.422C132.375 223.481 130.839 223.514 129.325 223.514C70.3271 223.514 22.3264 175.434 22.3264 116.344C22.3264 57.2547 70.3271 9.17349 129.325 9.17349C130.586 9.17349 131.859 9.19642 133.109 9.24229C135.494 9.32257 137.466 7.46491 137.547 5.09125C137.627 2.71757 135.781 0.722311 133.407 0.642041C132.065 0.596173 130.689 0.573242 129.325 0.573242C65.5913 0.573242 13.7375 52.5074 13.7375 116.344H13.7489Z" fill="#5ABF91"/>
<path d="M13.7489 116.344C13.7489 180.181 65.6028 232.116 129.336 232.116C130.965 232.116 132.616 232.08 134.256 232.012C136.629 231.909 138.464 229.913 138.361 227.54C138.258 225.166 136.263 223.343 133.889 223.422C132.375 223.481 130.839 223.514 129.325 223.514C70.3271 223.514 22.3264 175.434 22.3264 116.344C22.3264 57.2547 70.3271 9.17349 129.325 9.17349C130.586 9.17349 131.859 9.19642 133.109 9.24229C135.494 9.32257 137.466 7.46491 137.547 5.09125C137.627 2.71757 135.781 0.722311 133.407 0.642041C132.065 0.596173 130.689 0.573242 129.325 0.573242C65.5913 0.573242 13.7375 52.5074 13.7375 116.344H13.7489Z" stroke="#5ABF91" stroke-width="1.1467" stroke-miterlimit="10"/>
<path d="M28.679 116.309C28.679 144.644 40.708 171.844 61.6926 190.913C62.5181 191.659 63.5502 192.026 64.5822 192.026C65.7519 192.026 66.9215 191.555 67.7587 190.616C69.3525 188.861 69.2265 186.143 67.4719 184.549C48.2763 167.097 37.2679 142.225 37.2679 116.309C37.2679 65.4647 78.6294 24.1033 129.474 24.1033C155 24.1033 179.608 34.8249 197.004 53.5276C198.62 55.2705 201.338 55.3623 203.081 53.7454C204.813 52.1287 204.915 49.4109 203.299 47.668C184.287 27.2338 157.373 15.5029 129.474 15.5029C73.8934 15.5029 28.6675 60.7289 28.6675 116.309H28.679Z" fill="#5ABF91"/>
<path d="M28.679 116.309C28.679 144.644 40.708 171.844 61.6926 190.913C62.5181 191.659 63.5502 192.026 64.5822 192.026C65.7519 192.026 66.9215 191.555 67.7587 190.616C69.3525 188.861 69.2265 186.143 67.4719 184.549C48.2763 167.097 37.2679 142.225 37.2679 116.309C37.2679 65.4647 78.6294 24.1033 129.474 24.1033C155 24.1033 179.608 34.8249 197.004 53.5276C198.62 55.2705 201.338 55.3623 203.081 53.7454C204.813 52.1287 204.915 49.4109 203.299 47.668C184.287 27.2338 157.373 15.5029 129.474 15.5029C73.8934 15.5029 28.6675 60.7289 28.6675 116.309H28.679Z" stroke="#5ABF91" stroke-width="1.1467" stroke-miterlimit="10"/>
<path d="M211.154 123.305C213.538 123.385 215.511 121.539 215.591 119.165C215.626 118.179 215.649 117.17 215.649 116.161C215.649 68.7675 177.016 30.2153 129.52 30.2153C82.0235 30.2153 43.3913 68.7675 43.3913 116.161C43.3913 117.433 43.4257 118.718 43.4714 119.979C43.5747 122.284 45.4782 124.084 47.7602 124.084C47.8289 124.084 47.8862 124.084 47.9551 124.084C50.3287 123.981 52.1635 121.974 52.0603 119.612C52.0144 118.465 51.98 117.307 51.98 116.161C51.98 73.5033 86.7594 38.7927 129.508 38.7927C172.258 38.7927 207.037 73.5033 207.037 116.161C207.037 117.066 207.026 117.972 206.991 118.867C206.911 121.229 208.768 123.224 211.141 123.305H211.154Z" fill="#5ABF91"/>
<path d="M211.154 123.305C213.538 123.385 215.511 121.539 215.591 119.165C215.626 118.179 215.649 117.17 215.649 116.161C215.649 68.7675 177.016 30.2153 129.52 30.2153C82.0235 30.2153 43.3913 68.7675 43.3913 116.161C43.3913 117.433 43.4257 118.718 43.4714 119.979C43.5747 122.284 45.4782 124.084 47.7602 124.084C47.8289 124.084 47.8862 124.084 47.9551 124.084C50.3287 123.981 52.1635 121.974 52.0603 119.612C52.0144 118.465 51.98 117.307 51.98 116.161C51.98 73.5033 86.7594 38.7927 129.508 38.7927C172.258 38.7927 207.037 73.5033 207.037 116.161C207.037 117.066 207.026 117.972 206.991 118.867C206.911 121.229 208.768 123.224 211.141 123.305H211.154Z" stroke="#5ABF91" stroke-width="1.1467" stroke-miterlimit="10"/>
<path d="M175.411 170.651C176.442 170.651 177.487 170.273 178.313 169.527C193.197 155.882 201.728 136.491 201.728 116.309C201.728 76.5072 169.344 44.136 129.554 44.136C108.948 44.136 89.2707 52.9771 75.5791 68.4001C74.008 70.1774 74.1686 72.8837 75.9345 74.4662C77.712 76.0371 80.4181 75.8766 82.0006 74.1106C94.0638 60.5223 111.402 52.7362 129.554 52.7362C164.62 52.7362 193.139 81.2661 193.139 116.321C193.139 134.095 185.617 151.18 172.51 163.209C170.766 164.815 170.641 167.521 172.245 169.275C173.094 170.192 174.252 170.663 175.411 170.663V170.651Z" fill="#5ABF91"/>
<path d="M175.411 170.651C176.442 170.651 177.487 170.273 178.313 169.527C193.197 155.882 201.728 136.491 201.728 116.309C201.728 76.5072 169.344 44.136 129.554 44.136C108.948 44.136 89.2707 52.9771 75.5791 68.4001C74.008 70.1774 74.1686 72.8837 75.9345 74.4662C77.712 76.0371 80.4181 75.8766 82.0006 74.1106C94.0638 60.5223 111.402 52.7362 129.554 52.7362C164.62 52.7362 193.139 81.2661 193.139 116.321C193.139 134.095 185.617 151.18 172.51 163.209C170.766 164.815 170.641 167.521 172.245 169.275C173.094 170.192 174.252 170.663 175.411 170.663V170.651Z" stroke="#5ABF91" stroke-width="1.1467" stroke-miterlimit="10"/>
<path d="M125.082 173.989C126.596 174.114 128.144 174.172 129.68 174.172C161.478 174.172 187.348 148.234 187.348 116.355C187.348 84.477 161.478 58.5273 129.68 58.5273C128.82 58.5273 127.96 58.5503 127.123 58.5845C124.761 58.6878 122.926 60.6945 123.03 63.0567C123.133 65.4303 125.151 67.2652 127.49 67.1505C128.201 67.1161 128.947 67.1046 129.669 67.1046C156.742 67.1046 178.77 89.1901 178.77 116.344C178.77 143.498 156.742 165.583 129.669 165.583C128.362 165.583 127.043 165.526 125.747 165.422C123.397 165.239 121.332 167.005 121.149 169.367C120.966 171.73 122.72 173.793 125.082 173.989Z" fill="#5ABF91"/>
<path d="M125.082 173.989C126.596 174.114 128.144 174.172 129.68 174.172C161.478 174.172 187.348 148.234 187.348 116.355C187.348 84.477 161.478 58.5273 129.68 58.5273C128.82 58.5273 127.96 58.5503 127.123 58.5845C124.761 58.6878 122.926 60.6945 123.03 63.0567C123.133 65.4303 125.151 67.2652 127.49 67.1505C128.201 67.1161 128.947 67.1046 129.669 67.1046C156.742 67.1046 178.77 89.1901 178.77 116.344C178.77 143.498 156.742 165.583 129.669 165.583C128.362 165.583 127.043 165.526 125.747 165.422C123.397 165.239 121.332 167.005 121.149 169.367C120.966 171.73 122.72 173.793 125.082 173.989Z" stroke="#5ABF91" stroke-width="1.1467" stroke-miterlimit="10"/>
<path d="M95.1189 137.432C93.2383 138.876 92.8942 141.571 94.3391 143.44C102.825 154.449 115.656 160.767 129.543 160.767C154.026 160.767 173.954 140.849 173.954 116.367C173.954 103.409 168.313 91.1278 158.475 82.6766C156.673 81.1285 153.967 81.335 152.431 83.1353C150.883 84.9355 151.089 87.6304 152.89 89.1784C160.825 96.0013 165.377 105.909 165.377 116.367C165.377 136.124 149.3 152.201 129.543 152.201C118.34 152.201 107.985 147.098 101.128 138.211C99.6827 136.342 96.9995 135.987 95.1189 137.432Z" fill="#5ABF91"/>
<path d="M95.1189 137.432C93.2383 138.876 92.8942 141.571 94.3391 143.44C102.825 154.449 115.656 160.767 129.543 160.767C154.026 160.767 173.954 140.849 173.954 116.367C173.954 103.409 168.313 91.1278 158.475 82.6766C156.673 81.1285 153.967 81.335 152.431 83.1353C150.883 84.9355 151.089 87.6304 152.89 89.1784C160.825 96.0013 165.377 105.909 165.377 116.367C165.377 136.124 149.3 152.201 129.543 152.201C118.34 152.201 107.985 147.098 101.128 138.211C99.6827 136.342 96.9995 135.987 95.1189 137.432Z" stroke="#5ABF91" stroke-width="1.1467" stroke-miterlimit="10"/>
<path d="M104.636 107.537C102.309 107.113 100.084 108.638 99.6598 110.955C99.3272 112.755 99.1553 114.601 99.1553 116.459C99.1553 133.143 112.778 146.72 129.52 146.72C146.262 146.72 159.885 133.143 159.885 116.459C159.885 114.406 159.678 112.354 159.265 110.37C158.796 108.065 156.537 106.574 154.22 107.044C151.903 107.515 150.413 109.774 150.883 112.078C151.181 113.512 151.33 114.991 151.33 116.459C151.33 128.442 141.549 138.189 129.52 138.189C117.491 138.189 107.71 128.442 107.71 116.459C107.71 115.129 107.824 113.798 108.065 112.503C108.489 110.186 106.953 107.962 104.636 107.537Z" fill="#5ABF91"/>
<path d="M104.636 107.537C102.309 107.113 100.084 108.638 99.6598 110.955C99.3272 112.755 99.1553 114.601 99.1553 116.459C99.1553 133.143 112.778 146.72 129.52 146.72C146.262 146.72 159.885 133.143 159.885 116.459C159.885 114.406 159.678 112.354 159.265 110.37C158.796 108.065 156.537 106.574 154.22 107.044C151.903 107.515 150.413 109.774 150.883 112.078C151.181 113.512 151.33 114.991 151.33 116.459C151.33 128.442 141.549 138.189 129.52 138.189C117.491 138.189 107.71 128.442 107.71 116.459C107.71 115.129 107.824 113.798 108.065 112.503C108.489 110.186 106.953 107.962 104.636 107.537Z" stroke="#5ABF91" stroke-width="1.1467" stroke-miterlimit="10"/>
<path d="M125.048 108.42C126.894 106.975 127.215 104.304 125.77 102.457C124.325 100.611 121.653 100.29 119.807 101.735C116.264 104.51 114.016 108.5 113.477 112.973C112.938 117.445 114.166 121.86 116.94 125.403C119.715 128.946 123.706 131.194 128.167 131.744C128.855 131.824 129.543 131.87 130.231 131.87C133.969 131.87 137.593 130.632 140.585 128.281C142.432 126.836 142.753 124.164 141.308 122.318C139.863 120.472 137.191 120.151 135.345 121.596C133.591 122.972 131.4 123.579 129.187 123.316C126.974 123.041 125.002 121.928 123.626 120.174C122.25 118.419 121.642 116.229 121.906 114.016C122.181 111.803 123.293 109.819 125.048 108.443V108.42Z" fill="#5ABF91"/>
<path d="M125.048 108.42C126.894 106.975 127.215 104.304 125.77 102.457C124.325 100.611 121.653 100.29 119.807 101.735C116.264 104.51 114.016 108.5 113.477 112.973C112.938 117.445 114.166 121.86 116.94 125.403C119.715 128.946 123.706 131.194 128.167 131.744C128.855 131.824 129.543 131.87 130.231 131.87C133.969 131.87 137.593 130.632 140.585 128.281C142.432 126.836 142.753 124.164 141.308 122.318C139.863 120.472 137.191 120.151 135.345 121.596C133.591 122.972 131.4 123.579 129.187 123.316C126.974 123.041 125.002 121.928 123.626 120.174C122.25 118.419 121.642 116.229 121.906 114.016C122.181 111.803 123.293 109.819 125.048 108.443V108.42Z" stroke="#5ABF91" stroke-width="1.1467" stroke-miterlimit="10"/>
</svg>
