<svg width="32" height="32" viewBox="0 0 32 32" fill="none" xmlns="http://www.w3.org/2000/svg">
<rect width="32" height="32" fill="#0F0D0B"/>
<path d="M11.184 19.768C11.1413 19.768 11.0987 19.7467 11.056 19.704L10.944 19.672L10.912 19.688L10.944 19.64C10.944 19.608 10.9227 19.592 10.88 19.592C10.8373 19.592 10.8053 19.592 10.784 19.592C10.7947 19.5173 10.752 19.48 10.656 19.48C10.5707 19.48 10.5333 19.4587 10.544 19.416L10.48 19.4C10.4693 19.3467 10.4373 19.2987 10.384 19.256C10.4053 19.2347 10.4107 19.208 10.4 19.176C10.3893 19.1547 10.384 19.1387 10.384 19.128C10.3627 19.128 10.3413 19.1173 10.32 19.096L10.304 19.048C10.2827 19.048 10.2507 19.0373 10.208 19.016C10.208 18.9947 10.2027 18.9733 10.192 18.952C10.192 18.9307 10.192 18.9147 10.192 18.904H10.176C10.1653 18.8613 10.1493 18.84 10.128 18.84C10.1173 18.84 10.1013 18.8347 10.08 18.824C10.0587 18.7387 10.0533 18.6747 10.064 18.632C10.0747 18.5893 10.0747 18.5307 10.064 18.456L10.08 18.424C10.1333 18.328 10.16 18.28 10.16 18.28C10.192 18.28 10.2187 18.312 10.24 18.376C10.2613 18.44 10.2827 18.488 10.304 18.52C10.3147 18.5307 10.3307 18.5413 10.352 18.552C10.3733 18.5627 10.3787 18.5733 10.368 18.584L10.352 18.648L10.384 18.632C10.384 18.6747 10.3947 18.7067 10.416 18.728C10.4267 18.7707 10.448 18.84 10.48 18.936C10.512 19.0213 10.5653 19.0587 10.64 19.048C10.64 19.08 10.656 19.112 10.688 19.144C10.7307 19.176 10.768 19.1867 10.8 19.176C10.8107 19.1973 10.8373 19.2133 10.88 19.224C10.9227 19.2347 10.9547 19.2453 10.976 19.256C11.0293 19.2453 11.0827 19.24 11.136 19.24C11.2 19.2507 11.2587 19.2507 11.312 19.24L11.664 19.176C11.6747 19.1653 11.728 19.1387 11.824 19.096C11.92 19.0533 11.9893 19.0107 12.032 18.968H12.048C12.1013 18.968 12.1547 18.9573 12.208 18.936C12.272 18.904 12.3253 18.8773 12.368 18.856C12.4 18.8453 12.4267 18.8293 12.448 18.808C12.4693 18.776 12.496 18.7547 12.528 18.744L12.672 18.664C12.704 18.6427 12.736 18.6373 12.768 18.648C12.8107 18.648 12.848 18.6267 12.88 18.584C12.912 18.5627 12.9387 18.536 12.96 18.504C12.992 18.472 13.0187 18.4453 13.04 18.424H13.088C13.12 18.3707 13.1413 18.328 13.152 18.296L13.456 18.184C13.4773 18.1627 13.4933 18.1413 13.504 18.12C13.5253 18.088 13.5413 18.0613 13.552 18.04C13.5733 18.0187 13.6 18.0027 13.632 17.992C13.664 17.9707 13.68 17.9387 13.68 17.896C13.7333 17.8747 13.7813 17.848 13.824 17.816C13.8773 17.784 13.9147 17.7467 13.936 17.704C13.9573 17.6933 14.0213 17.6453 14.128 17.56C14.2347 17.464 14.3573 17.3573 14.496 17.24C14.6347 17.1227 14.7573 17.0213 14.864 16.936C14.9707 16.84 15.0293 16.7867 15.04 16.776L15.104 16.712L14.608 16.52C14.3307 16.4133 14.0427 16.328 13.744 16.264C13.456 16.1893 13.1413 16.136 12.8 16.104C12.7253 16.0933 12.672 16.072 12.64 16.04C12.6187 15.9973 12.608 15.9227 12.608 15.816C12.608 15.6773 12.6613 15.5867 12.768 15.544C12.8747 15.4907 12.9973 15.464 13.136 15.464C13.2853 15.464 13.4027 15.4747 13.488 15.496C13.584 15.5173 13.7173 15.5333 13.888 15.544C13.9093 15.544 13.9893 15.56 14.128 15.592C14.2667 15.6133 14.416 15.6347 14.576 15.656C14.5973 15.656 14.6827 15.6613 14.832 15.672C14.992 15.6827 15.1307 15.688 15.248 15.688C15.3867 15.6773 15.5307 15.672 15.68 15.672C15.8293 15.672 15.9787 15.672 16.128 15.672L16.384 15.384C16.48 15.2773 16.5707 15.1707 16.656 15.064C16.752 14.9573 16.8533 14.856 16.96 14.76C16.992 14.728 17.024 14.7013 17.056 14.68C17.0987 14.6587 17.136 14.6267 17.168 14.584L17.312 14.408C17.3333 14.3867 17.3547 14.3707 17.376 14.36C17.408 14.3493 17.4293 14.3387 17.44 14.328C17.4827 14.2853 17.52 14.2373 17.552 14.184C17.584 14.1307 17.6107 14.0827 17.632 14.04C17.6533 14.04 17.6907 14.008 17.744 13.944C17.7973 13.88 17.8293 13.8373 17.84 13.816C17.8933 13.7947 17.9307 13.7627 17.952 13.72C17.984 13.6667 18.0107 13.6133 18.032 13.56C18.064 13.5387 18.096 13.5173 18.128 13.496C18.1707 13.464 18.2027 13.432 18.224 13.4C18.2453 13.368 18.2613 13.3307 18.272 13.288C18.2933 13.2453 18.3253 13.2187 18.368 13.208C18.4 13.1227 18.4693 13.0267 18.576 12.92C18.6933 12.8027 18.7573 12.7227 18.768 12.68C18.8213 12.6693 18.8693 12.6373 18.912 12.584C18.9547 12.52 18.9973 12.4773 19.04 12.456C19.0827 12.3387 19.1627 12.2373 19.28 12.152C19.3973 12.056 19.4613 11.9547 19.472 11.848C19.4827 11.8267 19.4987 11.8107 19.52 11.8C19.5413 11.7893 19.5573 11.7787 19.568 11.768C19.6 11.7467 19.6213 11.72 19.632 11.688C19.6533 11.6453 19.68 11.608 19.712 11.576C19.7227 11.5547 19.7333 11.5387 19.744 11.528C19.7653 11.5173 19.7813 11.5067 19.792 11.496C19.7813 11.496 19.744 11.4853 19.68 11.464C19.6587 11.464 19.616 11.464 19.552 11.464C19.488 11.4533 19.4187 11.448 19.344 11.448C19.0987 11.448 18.9333 11.4587 18.848 11.48C18.6453 11.4907 18.4693 11.5067 18.32 11.528C18.1813 11.5493 18.016 11.5867 17.824 11.64C17.824 11.64 17.8187 11.6347 17.808 11.624C17.7973 11.6133 17.7867 11.608 17.776 11.608L17.76 11.592C17.728 11.5813 17.7227 11.5867 17.744 11.608C17.7653 11.6293 17.76 11.6453 17.728 11.656C17.664 11.6667 17.5893 11.6827 17.504 11.704C17.4293 11.7253 17.36 11.736 17.296 11.736C17.264 11.7467 17.232 11.752 17.2 11.752C17.168 11.7413 17.136 11.736 17.104 11.736C16.9973 11.7467 16.8907 11.784 16.784 11.848C16.688 11.9013 16.5867 11.9387 16.48 11.96L16.288 12.008C16.2133 12.0293 16.1547 12.0507 16.112 12.072C16.08 12.0827 16.0213 12.0987 15.936 12.12L15.792 12.168C15.76 12.1787 15.7227 12.1893 15.68 12.2C15.648 12.2107 15.6107 12.2213 15.568 12.232C15.4827 12.264 15.392 12.3013 15.296 12.344C15.2107 12.3867 15.1253 12.4187 15.04 12.44L14.752 12.52C14.72 12.5307 14.672 12.536 14.608 12.536C14.5227 12.536 14.464 12.5253 14.432 12.504C14.3893 12.4827 14.336 12.424 14.272 12.328C14.2187 12.2213 14.1973 12.1467 14.208 12.104C14.272 12.008 14.4 11.9333 14.592 11.88C14.7947 11.816 14.9227 11.7787 14.976 11.768C14.9867 11.7573 15.0347 11.7413 15.12 11.72C15.216 11.688 15.3067 11.6613 15.392 11.64C15.4773 11.6187 15.52 11.6187 15.52 11.64C15.5307 11.6507 15.472 11.6933 15.344 11.768C15.216 11.832 15.1467 11.8693 15.136 11.88C15.136 11.8907 15.1253 11.9067 15.104 11.928C15.0933 11.9493 15.0933 11.9547 15.104 11.944L15.472 11.848C15.4933 11.8373 15.536 11.832 15.6 11.832H15.712C15.7867 11.832 15.8347 11.8213 15.856 11.8C15.8773 11.7573 15.8987 11.736 15.92 11.736C15.9733 11.7147 16.0533 11.6987 16.16 11.688C16.2773 11.6667 16.352 11.6453 16.384 11.624C16.4373 11.6133 16.496 11.608 16.56 11.608C16.624 11.5973 16.6827 11.5813 16.736 11.56C16.768 11.5493 16.8747 11.528 17.056 11.496C17.248 11.464 17.44 11.432 17.632 11.4C17.824 11.368 17.9307 11.352 17.952 11.352H17.968C18.0213 11.352 18.0747 11.3467 18.128 11.336C18.1813 11.3147 18.2133 11.336 18.224 11.4C18.2347 11.4 18.24 11.4053 18.24 11.416C18.24 11.416 18.2453 11.416 18.256 11.416C18.32 11.416 18.3787 11.3893 18.432 11.336C18.4533 11.3253 18.5067 11.3147 18.592 11.304C18.6773 11.2933 18.7307 11.288 18.752 11.288C18.8373 11.2773 18.9067 11.272 18.96 11.272C19.0133 11.272 19.0613 11.272 19.104 11.272C19.1893 11.272 19.264 11.2773 19.328 11.288C19.4027 11.288 19.4933 11.2933 19.6 11.304C19.6427 11.3147 19.696 11.32 19.76 11.32C19.8347 11.32 19.8987 11.3253 19.952 11.336L20.016 11.256C20.0907 11.2133 20.1547 11.192 20.208 11.192C20.2507 11.192 20.272 11.2133 20.272 11.256C20.272 11.3733 20.2133 11.48 20.096 11.576C20.0853 11.5867 20.0587 11.6027 20.016 11.624C19.9733 11.6347 19.9467 11.6507 19.936 11.672C19.8827 11.8107 19.776 11.9387 19.616 12.056C19.4667 12.1733 19.3867 12.2587 19.376 12.312C19.3333 12.3333 19.2853 12.3653 19.232 12.408C19.1787 12.4507 19.1467 12.4933 19.136 12.536C19.0827 12.6 19.04 12.6693 19.008 12.744C18.976 12.808 18.928 12.872 18.864 12.936C18.832 12.968 18.7787 13.032 18.704 13.128C18.6293 13.224 18.5547 13.32 18.48 13.416C18.4053 13.5013 18.352 13.544 18.32 13.544C18.288 13.576 18.272 13.5973 18.272 13.608C18.2827 13.6187 18.2613 13.64 18.208 13.672C18.1547 13.7253 18.112 13.784 18.08 13.848C18.016 13.8587 17.9627 13.9013 17.92 13.976C17.888 14.04 17.856 14.0987 17.824 14.152C17.7813 14.2053 17.7333 14.2533 17.68 14.296C17.6373 14.3387 17.5947 14.3867 17.552 14.44C17.5093 14.4507 17.4613 14.4987 17.408 14.584C17.3653 14.6587 17.3333 14.712 17.312 14.744C17.248 14.8187 17.1893 14.8773 17.136 14.92C17.0933 14.9627 17.072 15.0373 17.072 15.144C17.0507 15.1653 17.0187 15.1973 16.976 15.24C16.9333 15.2827 16.9067 15.32 16.896 15.352C16.8747 15.3947 16.8427 15.432 16.8 15.464C16.768 15.496 16.7413 15.5333 16.72 15.576L16.672 15.608L16.656 15.64C16.784 15.64 16.912 15.64 17.04 15.64C17.168 15.64 17.2907 15.6347 17.408 15.624L17.936 15.592C17.9573 15.592 17.9893 15.608 18.032 15.64C18.0853 15.6613 18.1173 15.6667 18.128 15.656C18.16 15.656 18.1707 15.64 18.16 15.608C18.1493 15.5653 18.1653 15.544 18.208 15.544C18.304 15.5333 18.4213 15.5227 18.56 15.512C18.7093 15.4907 18.8533 15.464 18.992 15.432L19.136 14.984L19.28 14.52C19.3013 14.4453 19.3333 14.3973 19.376 14.376C19.4187 14.3547 19.4453 14.3227 19.456 14.28C19.4667 14.2587 19.456 14.2427 19.424 14.232C19.392 14.2107 19.392 14.1787 19.424 14.136C19.52 13.8373 19.6427 13.5387 19.792 13.24C19.9413 12.9413 20.0693 12.6693 20.176 12.424V12.408C20.208 12.3653 20.2347 12.3333 20.256 12.312C20.288 12.2907 20.3093 12.264 20.32 12.232C20.3093 12.2213 20.3093 12.2107 20.32 12.2C20.3307 12.1893 20.3253 12.1787 20.304 12.168C20.3787 12.0933 20.4213 11.9973 20.432 11.88L20.592 11.544L20.832 11.16C20.8427 11.128 20.8693 11.0907 20.912 11.048C20.9973 10.952 21.072 10.904 21.136 10.904C21.232 10.904 21.2373 10.9627 21.152 11.08L21.12 11.16L21.008 11.304L20.944 11.48C20.8373 11.672 20.736 11.88 20.64 12.104C20.544 12.328 20.4373 12.5627 20.32 12.808V12.872C20.32 12.9253 20.304 12.9627 20.272 12.984C20.2507 13.0053 20.208 13.0267 20.144 13.048C20.176 13.112 20.1813 13.1813 20.16 13.256L20.048 13.576C20.0053 13.6827 19.9467 13.8107 19.872 13.96C19.7973 14.1093 19.7547 14.2267 19.744 14.312C19.6373 14.6533 19.5573 14.9787 19.504 15.288C19.536 15.2773 19.568 15.2667 19.6 15.256C19.632 15.2453 19.6587 15.2347 19.68 15.224C19.7333 15.2027 19.7707 15.192 19.792 15.192C19.824 15.192 19.8667 15.1867 19.92 15.176C19.984 15.1547 20.048 15.128 20.112 15.096C20.144 15.0747 20.1867 15.064 20.24 15.064C20.2933 15.064 20.32 15.08 20.32 15.112C20.32 15.1547 20.272 15.2027 20.176 15.256L19.84 15.448C19.7547 15.4693 19.6853 15.48 19.632 15.48C19.6107 15.48 19.5573 15.4907 19.472 15.512L19.408 15.88L19.424 16.12C19.4133 16.152 19.3653 16.168 19.28 16.168C19.2053 16.168 19.1947 16.216 19.248 16.312C19.2907 16.3653 19.3173 16.4027 19.328 16.424C19.3387 16.4347 19.3333 16.4827 19.312 16.568C19.2693 16.696 19.232 16.8667 19.2 17.08C19.1787 17.2933 19.1627 17.4693 19.152 17.608C19.152 17.6187 19.1413 17.6453 19.12 17.688C19.1093 17.7307 19.0987 17.7627 19.088 17.784C19.088 17.7947 19.0933 17.8 19.104 17.8C19.1253 17.8 19.136 17.8107 19.136 17.832C19.1573 18.056 19.1573 18.264 19.136 18.456L19.104 18.824C19.104 18.8347 19.0933 18.856 19.072 18.888C19.0507 18.92 19.0453 18.9467 19.056 18.968C19.024 19.0853 18.9653 19.1653 18.88 19.208C18.7947 19.2613 18.7093 19.288 18.624 19.288C18.464 19.288 18.3573 19.2613 18.304 19.208L18.224 19.144V18.792C18.16 18.7387 18.096 18.6853 18.032 18.632C17.968 18.5787 17.904 18.5307 17.84 18.488C17.7227 18.4027 17.6053 18.328 17.488 18.264C17.3813 18.1893 17.2693 18.1093 17.152 18.024C17.024 17.928 16.896 17.8267 16.768 17.72C16.6507 17.6133 16.5227 17.512 16.384 17.416C16.2347 17.3093 16.08 17.2133 15.92 17.128C15.76 17.032 15.6 16.9467 15.44 16.872C15.3973 16.9147 15.3173 16.9947 15.2 17.112C15.0827 17.2187 14.9707 17.3253 14.864 17.432C14.7573 17.528 14.6933 17.5813 14.672 17.592C14.6613 17.6133 14.6453 17.6347 14.624 17.656C14.6133 17.6773 14.5973 17.6987 14.576 17.72C14.5547 17.7307 14.5227 17.7467 14.48 17.768C14.448 17.7893 14.432 17.8107 14.432 17.832C14.4107 17.8533 14.3787 17.8747 14.336 17.896C14.304 17.9067 14.2827 17.9333 14.272 17.976L14.288 17.992C14.2453 18.0027 14.224 18.0133 14.224 18.024C14.2347 18.0347 14.24 18.056 14.24 18.088C14.2293 18.0987 14.192 18.12 14.128 18.152C14.0747 18.184 14.0373 18.2053 14.016 18.216C13.92 18.2693 13.8507 18.312 13.808 18.344C13.776 18.376 13.7333 18.44 13.68 18.536C13.648 18.5573 13.5787 18.6 13.472 18.664C13.3653 18.728 13.312 18.7707 13.312 18.792C13.2693 18.8027 13.2427 18.824 13.232 18.856C13.2213 18.888 13.2053 18.9147 13.184 18.936C13.1733 18.9573 13.152 18.9733 13.12 18.984C13.088 18.9947 13.0667 19.016 13.056 19.048L13.024 19.064H13.008C12.976 19.064 12.944 19.08 12.912 19.112C12.8907 19.144 12.8693 19.1707 12.848 19.192C12.7307 19.2027 12.64 19.2347 12.576 19.288C12.5227 19.352 12.448 19.4053 12.352 19.448C12.224 19.5013 12.0907 19.5547 11.952 19.608C11.8133 19.6613 11.6693 19.6987 11.52 19.72C11.4773 19.7413 11.4453 19.7573 11.424 19.768C11.4133 19.7893 11.3813 19.7893 11.328 19.768C11.3493 19.736 11.344 19.72 11.312 19.72C11.2693 19.752 11.2267 19.768 11.184 19.768ZM18.256 18.584V18.536C18.256 18.504 18.272 18.472 18.304 18.44C18.2933 18.4187 18.2827 18.408 18.272 18.408C18.272 18.3973 18.272 18.3867 18.272 18.376L18.608 16.792C18.6507 16.6 18.6987 16.408 18.752 16.216C18.816 16.0133 18.88 15.8107 18.944 15.608C18.9227 15.6187 18.9013 15.624 18.88 15.624C18.8267 15.6347 18.784 15.64 18.752 15.64C18.72 15.64 18.6667 15.6507 18.592 15.672C18.4853 15.6933 18.3627 15.7253 18.224 15.768C18.096 15.8107 17.9573 15.8373 17.808 15.848C17.7013 15.8587 17.616 15.8587 17.552 15.848C17.4987 15.8373 17.4187 15.8373 17.312 15.848C17.2587 15.8587 17.1733 15.8747 17.056 15.896C16.9387 15.9067 16.848 15.912 16.784 15.912L16.288 15.976C16.288 15.976 16.2827 15.9813 16.272 15.992C16.272 16.0027 16.272 16.0133 16.272 16.024C16.2507 16.0453 16.208 16.0827 16.144 16.136C16.0907 16.1787 16.0587 16.2213 16.048 16.264L16 16.28C15.9893 16.2907 15.968 16.3173 15.936 16.36C15.9147 16.392 15.8987 16.4187 15.888 16.44C15.8453 16.4507 15.808 16.4773 15.776 16.52C15.744 16.5627 15.7173 16.6053 15.696 16.648C15.6533 16.648 15.6213 16.6587 15.6 16.68C15.856 16.8187 16.0853 16.9573 16.288 17.096C16.3307 17.128 16.3627 17.16 16.384 17.192C16.4053 17.224 16.4373 17.256 16.48 17.288C16.576 17.352 16.6667 17.4053 16.752 17.448C16.848 17.48 16.9333 17.528 17.008 17.592L17.984 18.328C18.016 18.3493 18.0587 18.3867 18.112 18.44C18.1653 18.4827 18.2133 18.5307 18.256 18.584ZM15.296 16.52C15.3813 16.4347 15.4667 16.3493 15.552 16.264C15.6373 16.1787 15.7227 16.0933 15.808 16.008L14.512 16.088C14.3627 16.0987 14.256 16.104 14.192 16.104C14.1387 16.104 14.0587 16.1147 13.952 16.136C14.0907 16.168 14.224 16.2053 14.352 16.248C14.48 16.28 14.608 16.3173 14.736 16.36C14.7893 16.3813 14.8373 16.4027 14.88 16.424C14.9227 16.4453 14.9653 16.4667 15.008 16.488C15.0293 16.4987 15.0507 16.4933 15.072 16.472C15.0933 16.44 15.1093 16.4293 15.12 16.44L15.296 16.52Z" fill="white"/>
</svg>
